<?xml version="1.0" encoding="utf-8"?>
<!-- Generator: Adobe Illustrator 16.0.0, SVG Export Plug-In . SVG Version: 6.00 Build 0)  -->
<!DOCTYPE svg PUBLIC "-//W3C//DTD SVG 1.1//EN" "http://www.w3.org/Graphics/SVG/1.1/DTD/svg11.dtd">
<svg version="1.1" id="Layer_1" xmlns="http://www.w3.org/2000/svg" xmlns:xlink="http://www.w3.org/1999/xlink" x="0px" y="0px"
	 width="300.433px" height="78.633px" viewBox="0 0 300.433 78.633" enable-background="new 0 0 300.433 78.633"
	 xml:space="preserve">
<g>
	<path fill="#333333" stroke="#C9C9C9" stroke-miterlimit="10" d="M49.937,48.8h-5.381L33.999,10.988L23.166,48.8h-5.589L4.052,0.5
		H9.71l10.764,37.881L31.031,0.5h5.658l10.557,37.881L57.804,0.5h5.658L49.937,48.8z"/>
	<path fill="#333333" stroke="#C9C9C9" stroke-miterlimit="10" d="M94.082,31.757c0,2.484-0.334,4.796-1,6.935
		c-0.667,2.139-1.668,4.002-3.002,5.589s-3.013,2.83-5.036,3.726c-2.025,0.897-4.394,1.346-7.107,1.346
		c-2.715,0-5.071-0.472-7.072-1.414s-3.669-2.219-5.003-3.831c-1.335-1.609-2.335-3.495-3.001-5.657
		c-0.668-2.162-1.001-4.462-1.001-6.9c0-2.484,0.333-4.796,1.001-6.935c0.666-2.139,1.666-4.002,3.001-5.589
		c1.334-1.587,3.002-2.829,5.003-3.726c2.001-0.897,4.357-1.346,7.072-1.346c2.714,0,5.082,0.46,7.107,1.38
		c2.023,0.921,3.702,2.186,5.036,3.795c1.334,1.61,2.335,3.496,3.002,5.658C93.748,26.95,94.082,29.272,94.082,31.757z
		 M88.977,31.688c0-1.977-0.207-3.806-0.621-5.485c-0.414-1.679-1.059-3.14-1.932-4.381c-0.875-1.242-2.014-2.22-3.416-2.933
		c-1.403-0.713-3.094-1.07-5.071-1.07c-1.979,0-3.657,0.346-5.037,1.035c-1.38,0.69-2.508,1.646-3.381,2.864
		c-0.874,1.219-1.518,2.68-1.932,4.381c-0.414,1.702-0.621,3.543-0.621,5.521c0,1.932,0.207,3.749,0.621,5.45
		c0.414,1.703,1.058,3.175,1.932,4.416c0.873,1.242,2.001,2.221,3.381,2.933c1.38,0.714,3.059,1.07,5.037,1.07
		c1.978,0,3.668-0.346,5.071-1.035c1.402-0.69,2.541-1.656,3.416-2.898c0.873-1.242,1.518-2.702,1.932-4.382
		C88.77,35.495,88.977,33.666,88.977,31.688z"/>
	<path fill="#333333" stroke="#C9C9C9" stroke-miterlimit="10" d="M128.16,31.757c0,2.484-0.334,4.796-1,6.935
		c-0.667,2.139-1.668,4.002-3.002,5.589s-3.013,2.83-5.036,3.726c-2.025,0.897-4.394,1.346-7.107,1.346
		c-2.715,0-5.071-0.472-7.072-1.414s-3.669-2.219-5.003-3.831c-1.335-1.609-2.335-3.495-3.001-5.657
		c-0.668-2.162-1.001-4.462-1.001-6.9c0-2.484,0.333-4.796,1.001-6.935c0.666-2.139,1.666-4.002,3.001-5.589
		c1.334-1.587,3.002-2.829,5.003-3.726c2.001-0.897,4.357-1.346,7.072-1.346c2.714,0,5.082,0.46,7.107,1.38
		c2.023,0.921,3.702,2.186,5.036,3.795c1.334,1.61,2.335,3.496,3.002,5.658C127.826,26.95,128.16,29.272,128.16,31.757z
		 M123.055,31.688c0-1.977-0.207-3.806-0.621-5.485c-0.414-1.679-1.059-3.14-1.932-4.381c-0.875-1.242-2.014-2.22-3.416-2.933
		c-1.403-0.713-3.094-1.07-5.071-1.07c-1.979,0-3.657,0.346-5.037,1.035c-1.38,0.69-2.508,1.646-3.381,2.864
		c-0.874,1.219-1.518,2.68-1.932,4.381c-0.414,1.702-0.621,3.543-0.621,5.521c0,1.932,0.207,3.749,0.621,5.45
		c0.414,1.703,1.058,3.175,1.932,4.416c0.873,1.242,2.001,2.221,3.381,2.933c1.38,0.714,3.059,1.07,5.037,1.07
		c1.978,0,3.668-0.346,5.071-1.035c1.402-0.69,2.541-1.656,3.416-2.898c0.873-1.242,1.518-2.702,1.932-4.382
		C122.848,35.495,123.055,33.666,123.055,31.688z"/>
	<path fill="#333333" stroke="#C9C9C9" stroke-miterlimit="10" d="M155.269,0.5h4.83v46.644c-4.002,1.242-7.959,1.863-11.868,1.863
		c-2.853,0-5.394-0.437-7.624-1.311c-2.231-0.874-4.141-2.093-5.728-3.658c-1.587-1.563-2.794-3.416-3.622-5.555
		s-1.242-4.496-1.242-7.072c0-3.082,0.506-5.728,1.519-7.936c1.011-2.208,2.356-4.024,4.036-5.451
		c1.679-1.425,3.599-2.472,5.762-3.139c2.161-0.666,4.392-1.001,6.692-1.001c1.242,0,2.461,0.093,3.657,0.276
		c1.196,0.184,2.393,0.438,3.588,0.759V0.5z M135.053,31.48c0,4.002,1.115,7.234,3.347,9.695c2.23,2.461,5.37,3.691,9.418,3.691
		c1.288,0,2.554-0.08,3.795-0.242c1.242-0.16,2.461-0.448,3.656-0.862V19.337c-1.102-0.368-2.24-0.679-3.414-0.932
		c-1.174-0.252-2.312-0.38-3.417-0.38c-4.095,0-7.349,1.163-9.764,3.485C136.26,23.834,135.053,27.157,135.053,31.48z"/>
	<path fill="#333333" stroke="#C9C9C9" stroke-miterlimit="10" d="M203.771,48.8h-4.623l-10.145-27.876L178.654,48.8h-4.623
		l-12.074-34.431h5.174l9.592,28.428l10.143-28.428h4.486l10.211,28.358l9.521-28.358h4.762L203.771,48.8z"/>
	<path fill="#333333" stroke="#C9C9C9" stroke-miterlimit="10" d="M239.126,48.8v-3.658c-0.691,0.921-1.461,1.646-2.313,2.174
		c-0.852,0.529-1.748,0.932-2.691,1.207c-0.943,0.276-1.955,0.449-3.035,0.518c-1.082,0.069-2.221,0.104-3.416,0.104
		c-1.703,0-3.277-0.207-4.727-0.621s-2.715-1.034-3.795-1.862c-1.082-0.829-1.922-1.852-2.518-3.072
		c-0.6-1.218-0.898-2.632-0.898-4.243c0-1.932,0.355-3.61,1.07-5.037c0.713-1.425,1.678-2.61,2.898-3.554
		c1.217-0.941,2.633-1.644,4.242-2.104c1.609-0.459,3.313-0.689,5.107-0.689c1.838,0,3.609,0.069,5.313,0.207
		c1.701,0.138,3.287,0.482,4.762,1.035v-2.829c0-2.622-0.818-4.634-2.451-6.038c-1.633-1.402-3.898-2.104-6.795-2.104
		c-1.842,0-3.395,0.22-4.658,0.656c-1.266,0.438-2.52,1.438-3.76,3.001l-3.383-2.897c1.473-1.748,3.15-3.024,5.037-3.83
		c1.887-0.805,4.209-1.208,6.971-1.208c2.023,0,3.885,0.253,5.588,0.759c1.701,0.507,3.162,1.266,4.381,2.277
		s2.162,2.254,2.83,3.726c0.666,1.473,1,3.174,1,5.106V48.8H239.126z M239.126,33.827c-1.428-0.644-2.922-1.023-4.486-1.139
		c-1.564-0.114-3.15-0.173-4.76-0.173c-1.15,0-2.277,0.104-3.383,0.311c-1.104,0.207-2.104,0.564-3,1.069
		c-0.898,0.507-1.621,1.197-2.174,2.07c-0.553,0.874-0.828,1.979-0.828,3.312c0,1.933,0.725,3.382,2.174,4.348
		s3.461,1.449,6.037,1.449c2.115,0,4.082-0.38,5.9-1.139c1.816-0.759,3.322-2.104,4.52-4.037V33.827z"/>
	<path fill="#333333" stroke="#C9C9C9" stroke-miterlimit="10" d="M267.173,18.785c-0.598-0.23-1.311-0.414-2.139-0.553
		c-0.828-0.138-1.611-0.207-2.346-0.207c-1.334,0-2.543,0.266-3.623,0.794c-1.08,0.529-2.047,1.196-2.898,2.001
		c-0.852,0.806-1.586,1.668-2.207,2.588s-1.162,1.771-1.621,2.553V48.8h-4.83V14.3h4.83v4.623c1.104-1.472,2.598-2.726,4.484-3.761
		s4.186-1.552,6.9-1.552c0.781,0,1.586,0.046,2.414,0.138c0.828,0.092,1.588,0.23,2.277,0.414L267.173,18.785z"/>
	<path fill="#333333" stroke="#C9C9C9" stroke-miterlimit="10" d="M291.117,0.5h4.83v46.644c-4.002,1.242-7.959,1.863-11.869,1.863
		c-2.852,0-5.393-0.437-7.623-1.311c-2.232-0.874-4.141-2.093-5.729-3.658c-1.586-1.563-2.793-3.416-3.621-5.555
		s-1.242-4.496-1.242-7.072c0-3.082,0.506-5.728,1.518-7.936s2.357-4.024,4.037-5.451c1.678-1.425,3.598-2.472,5.762-3.139
		c2.16-0.666,4.391-1.001,6.691-1.001c1.242,0,2.461,0.093,3.658,0.276c1.195,0.184,2.391,0.438,3.588,0.759V0.5z M270.9,31.48
		c0,4.002,1.115,7.234,3.346,9.695s5.371,3.691,9.418,3.691c1.289,0,2.555-0.08,3.795-0.242c1.242-0.16,2.461-0.448,3.658-0.862
		V19.337c-1.104-0.368-2.242-0.679-3.416-0.932c-1.172-0.252-2.311-0.38-3.416-0.38c-4.094,0-7.348,1.163-9.764,3.485
		C272.107,23.834,270.9,27.157,270.9,31.48z"/>
</g>
<g>
	<path fill="#C9C9C9" d="M33.291,78.346v-12.1H20.489v12.1h-2.738v-25.9h2.738v11.063h12.802V52.446h2.738v25.9H33.291z"/>
	<path fill="#C9C9C9" d="M49.353,78.346v-1.961c-0.37,0.494-0.784,0.883-1.24,1.166c-0.457,0.283-0.938,0.499-1.443,0.646
		c-0.506,0.148-1.049,0.24-1.628,0.277c-0.58,0.037-1.19,0.057-1.832,0.057c-0.913,0-1.758-0.111-2.535-0.334
		c-0.777-0.222-1.456-0.555-2.035-0.998c-0.58-0.444-1.03-0.993-1.35-1.646c-0.321-0.654-0.481-1.412-0.481-2.275
		c0-1.037,0.19-1.938,0.573-2.701c0.382-0.765,0.9-1.4,1.554-1.906c0.653-0.505,1.412-0.881,2.275-1.129
		c0.863-0.246,1.776-0.369,2.738-0.369c0.986,0,1.937,0.037,2.849,0.111c0.912,0.074,1.763,0.258,2.553,0.555v-1.518
		c0-1.406-0.438-2.484-1.313-3.237c-0.876-0.752-2.091-1.128-3.645-1.128c-0.987,0-1.819,0.117-2.498,0.352
		c-0.679,0.234-1.351,0.771-2.017,1.609l-1.813-1.555c0.789-0.937,1.689-1.621,2.701-2.053c1.011-0.432,2.257-0.648,3.737-0.648
		c1.085,0,2.084,0.137,2.997,0.408c0.912,0.271,1.695,0.678,2.35,1.221c0.653,0.543,1.159,1.209,1.517,1.998
		c0.357,0.789,0.537,1.701,0.537,2.738v12.32H49.353z M49.353,70.317c-0.765-0.345-1.567-0.549-2.405-0.61
		c-0.839-0.062-1.69-0.093-2.553-0.093c-0.617,0-1.221,0.057-1.813,0.167c-0.592,0.11-1.129,0.302-1.61,0.573
		s-0.869,0.643-1.166,1.11c-0.296,0.469-0.444,1.061-0.444,1.776c0,1.035,0.389,1.813,1.166,2.33
		c0.777,0.519,1.856,0.777,3.237,0.777c1.134,0,2.189-0.203,3.164-0.61c0.974-0.407,1.782-1.128,2.424-2.165V70.317z"/>
	<path fill="#C9C9C9" d="M66.088,78.346v-11.84c0-1.555-0.462-2.72-1.387-3.496c-0.925-0.777-2.066-1.166-3.423-1.166
		c-0.716,0-1.363,0.143-1.942,0.426c-0.58,0.283-1.098,0.642-1.554,1.072c-0.457,0.432-0.851,0.895-1.184,1.388
		c-0.333,0.494-0.624,0.95-0.87,1.369v12.247h-2.59V59.809h2.59v2.516c0.592-0.789,1.393-1.461,2.405-2.016
		c1.011-0.555,2.245-0.833,3.7-0.833c0.937,0,1.819,0.143,2.646,0.426c0.826,0.284,1.547,0.697,2.165,1.239
		c0.616,0.543,1.104,1.221,1.461,2.035c0.357,0.814,0.537,1.752,0.537,2.813v12.357H66.088z"/>
	<path fill="#C9C9C9" d="M82.868,52.446h2.59v25.012c-2.146,0.666-4.268,1-6.364,1c-1.529,0-2.892-0.234-4.088-0.703
		c-1.197-0.469-2.22-1.123-3.071-1.961s-1.499-1.832-1.943-2.979c-0.444-1.147-0.666-2.411-0.666-3.793
		c0-1.652,0.271-3.07,0.814-4.255c0.542-1.185,1.264-2.158,2.164-2.923c0.9-0.764,1.93-1.326,3.09-1.684
		c1.159-0.357,2.355-0.537,3.589-0.537c0.666,0,1.319,0.051,1.961,0.148c0.641,0.1,1.282,0.234,1.924,0.407V52.446z M72.026,69.059
		c0,2.146,0.598,3.879,1.794,5.199c1.196,1.319,2.88,1.979,5.051,1.979c0.69,0,1.369-0.043,2.035-0.129s1.319-0.24,1.961-0.463
		V62.547c-0.592-0.197-1.203-0.363-1.832-0.5c-0.629-0.135-1.24-0.203-1.832-0.203c-2.196,0-3.94,0.623-5.236,1.869
		C72.674,64.958,72.026,66.741,72.026,69.059z"/>
	<path fill="#C9C9C9" d="M112.581,78.346v-11.84c0-1.555-0.461-2.713-1.387-3.479c-0.926-0.764-2.066-1.158-3.422-1.184
		c-0.791,0-1.48,0.143-2.072,0.426s-1.104,0.642-1.535,1.072c-0.432,0.432-0.803,0.895-1.111,1.388
		c-0.309,0.494-0.586,0.95-0.832,1.369v12.247h-2.553v-11.84c0-1.555-0.463-2.72-1.387-3.496c-0.926-0.777-2.066-1.166-3.424-1.166
		c-0.715,0-1.363,0.143-1.941,0.426c-0.58,0.283-1.098,0.642-1.555,1.072c-0.457,0.432-0.851,0.895-1.184,1.388
		c-0.333,0.494-0.624,0.95-0.87,1.369v12.247h-2.59V59.809h2.59v2.516c0.592-0.789,1.393-1.461,2.405-2.016s2.244-0.833,3.699-0.833
		c1.383,0,2.615,0.29,3.701,0.87c1.084,0.58,1.898,1.449,2.441,2.607c0.32-0.369,0.691-0.758,1.109-1.165
		c0.42-0.407,0.908-0.782,1.463-1.128s1.178-0.629,1.867-0.852c0.691-0.222,1.469-0.333,2.332-0.333
		c0.938,0,1.818,0.136,2.645,0.407s1.549,0.685,2.166,1.239c0.615,0.556,1.104,1.239,1.461,2.054s0.537,1.752,0.537,2.813v12.357
		H112.581z"/>
	<path fill="#C9C9C9" d="M128.17,78.346v-1.961c-0.37,0.494-0.783,0.883-1.239,1.166c-0.457,0.283-0.938,0.499-1.443,0.646
		c-0.506,0.148-1.049,0.24-1.628,0.277c-0.58,0.037-1.19,0.057-1.832,0.057c-0.912,0-1.757-0.111-2.534-0.334
		c-0.777-0.222-1.456-0.555-2.035-0.998c-0.58-0.444-1.03-0.993-1.351-1.646c-0.32-0.654-0.48-1.412-0.48-2.275
		c0-1.037,0.19-1.938,0.573-2.701c0.382-0.765,0.9-1.4,1.554-1.906c0.653-0.505,1.412-0.881,2.275-1.129
		c0.863-0.246,1.776-0.369,2.738-0.369c0.986,0,1.937,0.037,2.85,0.111c0.912,0.074,1.763,0.258,2.553,0.555v-1.518
		c0-1.406-0.438-2.484-1.313-3.237c-0.876-0.752-2.091-1.128-3.645-1.128c-0.987,0-1.819,0.117-2.498,0.352
		s-1.351,0.771-2.017,1.609l-1.813-1.555c0.789-0.937,1.689-1.621,2.701-2.053c1.011-0.432,2.257-0.648,3.736-0.648
		c1.086,0,2.085,0.137,2.997,0.408c0.913,0.271,1.696,0.678,2.35,1.221s1.159,1.209,1.518,1.998
		c0.357,0.789,0.536,1.701,0.536,2.738v12.32H128.17z M128.17,70.317c-0.765-0.345-1.567-0.549-2.405-0.61
		c-0.839-0.062-1.689-0.093-2.553-0.093c-0.617,0-1.222,0.057-1.813,0.167s-1.128,0.302-1.609,0.573
		c-0.48,0.271-0.869,0.643-1.165,1.11c-0.296,0.469-0.444,1.061-0.444,1.776c0,1.035,0.389,1.813,1.166,2.33
		c0.776,0.519,1.855,0.777,3.237,0.777c1.134,0,2.188-0.203,3.163-0.61s1.782-1.128,2.424-2.165V70.317z"/>
	<path fill="#C9C9C9" d="M144.901,52.446h2.59v25.012c-2.146,0.666-4.268,1-6.364,1c-1.529,0-2.893-0.234-4.088-0.703
		c-1.197-0.469-2.221-1.123-3.071-1.961c-0.852-0.838-1.499-1.832-1.942-2.979c-0.444-1.147-0.666-2.411-0.666-3.793
		c0-1.652,0.271-3.07,0.813-4.255s1.264-2.158,2.165-2.923c0.899-0.764,1.93-1.326,3.089-1.684s2.355-0.537,3.59-0.537
		c0.666,0,1.318,0.051,1.961,0.148c0.641,0.1,1.282,0.234,1.924,0.407V52.446z M134.061,69.059c0,2.146,0.598,3.879,1.794,5.199
		c1.196,1.319,2.88,1.979,5.051,1.979c0.69,0,1.369-0.043,2.035-0.129s1.319-0.24,1.961-0.463V62.547
		c-0.592-0.197-1.203-0.363-1.832-0.5c-0.629-0.135-1.239-0.203-1.831-0.203c-2.196,0-3.94,0.623-5.235,1.869
		C134.708,64.958,134.061,66.741,134.061,69.059z"/>
	<path fill="#C9C9C9" d="M164.245,75.645c-0.863,0.938-1.862,1.646-2.997,2.127c-1.135,0.482-2.504,0.723-4.106,0.723
		c-1.48,0-2.775-0.253-3.885-0.759c-1.11-0.505-2.035-1.19-2.775-2.054c-0.741-0.863-1.295-1.85-1.666-2.96
		s-0.555-2.281-0.555-3.515c0-1.629,0.222-3.04,0.666-4.236c0.443-1.197,1.048-2.189,1.813-2.979
		c0.765-0.789,1.652-1.375,2.664-1.758s2.084-0.574,3.219-0.574c2.714,0,4.761,0.833,6.143,2.498
		c1.381,1.665,2.047,4.088,1.998,7.271h-13.875c0.074,2.097,0.678,3.762,1.813,4.995s2.677,1.85,4.625,1.85
		c1.086,0,2.072-0.178,2.96-0.536c0.889-0.357,1.689-0.931,2.405-1.721L164.245,75.645z M162.173,67.247
		c0-0.765-0.118-1.48-0.352-2.146c-0.235-0.666-0.568-1.232-0.999-1.702c-0.432-0.468-0.993-0.845-1.684-1.128
		c-0.691-0.283-1.493-0.426-2.405-0.426c-0.938,0-1.745,0.143-2.424,0.426s-1.215,0.646-1.609,1.092
		c-0.395,0.443-0.758,1.005-1.091,1.684c-0.333,0.678-0.55,1.412-0.647,2.201H162.173z"/>
	<path fill="#C9C9C9" d="M173.792,65.249c0-1.702,0.228-3.342,0.685-4.922c0.456-1.578,1.159-2.979,2.108-4.199
		s2.14-2.195,3.57-2.923s3.133-1.091,5.106-1.091c2.072,0,3.842,0.369,5.31,1.109c1.467,0.74,2.744,1.752,3.829,3.034l-1.961,1.739
		c-1.012-1.258-2.097-2.097-3.256-2.517c-1.159-0.419-2.441-0.629-3.848-0.629c-1.53,0-2.844,0.29-3.94,0.87
		c-1.098,0.58-2.011,1.35-2.738,2.313c-0.728,0.961-1.265,2.071-1.609,3.33c-0.346,1.258-0.519,2.564-0.519,3.922
		c0,1.332,0.173,2.633,0.519,3.902c0.345,1.271,0.882,2.394,1.609,3.367c0.728,0.975,1.641,1.758,2.738,2.35
		c1.097,0.592,2.41,0.889,3.94,0.889c1.406,0,2.688-0.229,3.848-0.685s2.244-1.313,3.256-2.571l1.961,1.738
		c-1.085,1.283-2.362,2.307-3.829,3.071c-1.468,0.765-3.237,1.147-5.31,1.147c-1.974,0-3.676-0.376-5.106-1.129
		c-1.431-0.752-2.621-1.744-3.57-2.979c-0.949-1.233-1.652-2.646-2.108-4.236C174.019,68.559,173.792,66.926,173.792,65.249z"/>
	<path fill="#C9C9C9" d="M205.251,62.25c-0.321-0.123-0.703-0.221-1.147-0.295c-0.443-0.074-0.863-0.111-1.258-0.111
		c-0.716,0-1.363,0.143-1.942,0.426c-0.58,0.283-1.098,0.642-1.554,1.072c-0.457,0.432-0.852,0.895-1.185,1.388
		c-0.333,0.494-0.623,0.95-0.869,1.369v12.247h-2.59v-18.5h2.59v2.479c0.592-0.789,1.394-1.461,2.405-2.016
		c1.011-0.555,2.244-0.833,3.699-0.833c0.42,0,0.852,0.024,1.296,0.074c0.443,0.05,0.851,0.124,1.221,0.222L205.251,62.25z"/>
	<path fill="#C9C9C9" d="M220.976,75.645c-0.863,0.938-1.862,1.646-2.997,2.127c-1.135,0.482-2.504,0.723-4.106,0.723
		c-1.48,0-2.775-0.253-3.885-0.759c-1.11-0.505-2.035-1.19-2.775-2.054s-1.295-1.85-1.665-2.96s-0.555-2.281-0.555-3.515
		c0-1.629,0.222-3.04,0.666-4.236c0.443-1.197,1.048-2.189,1.813-2.979s1.652-1.375,2.664-1.758s2.084-0.574,3.219-0.574
		c2.714,0,4.761,0.833,6.143,2.498c1.381,1.665,2.047,4.088,1.998,7.271H207.62c0.074,2.097,0.678,3.762,1.813,4.995
		s2.677,1.85,4.625,1.85c1.086,0,2.072-0.178,2.96-0.536c0.889-0.357,1.689-0.931,2.405-1.721L220.976,75.645z M218.905,67.247
		c0-0.765-0.118-1.48-0.352-2.146c-0.235-0.666-0.568-1.232-0.999-1.702c-0.432-0.468-0.993-0.845-1.684-1.128
		c-0.691-0.283-1.493-0.426-2.405-0.426c-0.938,0-1.745,0.143-2.424,0.426s-1.215,0.646-1.609,1.092
		c-0.395,0.443-0.758,1.005-1.091,1.684c-0.333,0.678-0.55,1.412-0.647,2.201H218.905z"/>
	<path fill="#C9C9C9" d="M233.993,78.346v-1.961c-0.37,0.494-0.783,0.883-1.239,1.166c-0.457,0.283-0.938,0.499-1.443,0.646
		c-0.506,0.148-1.049,0.24-1.628,0.277c-0.58,0.037-1.19,0.057-1.832,0.057c-0.912,0-1.757-0.111-2.534-0.334
		c-0.777-0.222-1.456-0.555-2.035-0.998c-0.58-0.444-1.03-0.993-1.351-1.646c-0.32-0.654-0.48-1.412-0.48-2.275
		c0-1.037,0.19-1.938,0.573-2.701c0.382-0.765,0.9-1.4,1.554-1.906c0.653-0.505,1.412-0.881,2.275-1.129
		c0.863-0.246,1.776-0.369,2.738-0.369c0.986,0,1.937,0.037,2.85,0.111c0.912,0.074,1.763,0.258,2.553,0.555v-1.518
		c0-1.406-0.438-2.484-1.313-3.237c-0.876-0.752-2.091-1.128-3.645-1.128c-0.987,0-1.819,0.117-2.498,0.352
		s-1.351,0.771-2.017,1.609l-1.813-1.555c0.789-0.937,1.689-1.621,2.701-2.053c1.011-0.432,2.257-0.648,3.736-0.648
		c1.086,0,2.085,0.137,2.997,0.408c0.913,0.271,1.696,0.678,2.35,1.221s1.159,1.209,1.518,1.998
		c0.357,0.789,0.536,1.701,0.536,2.738v12.32H233.993z M233.993,70.317c-0.765-0.345-1.567-0.549-2.405-0.61
		c-0.839-0.062-1.689-0.093-2.553-0.093c-0.617,0-1.222,0.057-1.813,0.167s-1.128,0.302-1.609,0.573
		c-0.48,0.271-0.869,0.643-1.165,1.11c-0.296,0.469-0.444,1.061-0.444,1.776c0,1.035,0.389,1.813,1.166,2.33
		c0.776,0.519,1.855,0.777,3.237,0.777c1.134,0,2.188-0.203,3.163-0.61s1.782-1.128,2.424-2.165V70.317z"/>
	<path fill="#C9C9C9" d="M238.451,62.067h-1.665v-2.295h1.665v-4.365h2.59v4.365h3.256v2.295h-3.256v9.36
		c0,0.642,0.03,1.245,0.093,1.813c0.061,0.567,0.179,1.078,0.352,1.535c0.172,0.457,0.419,0.826,0.739,1.109
		c0.32,0.284,0.74,0.438,1.258,0.463c0.271,0.025,0.519,0.019,0.74-0.019c0.223-0.037,0.432-0.079,0.629-0.13l0.333,2.109
		c-1.332,0.271-2.43,0.26-3.293-0.037c-0.863-0.296-1.554-0.771-2.071-1.424c-0.519-0.654-0.876-1.449-1.073-2.387
		c-0.198-0.938-0.296-1.924-0.296-2.961V62.067z"/>
	<path fill="#C9C9C9" d="M245.359,54.038c0-0.469,0.142-0.852,0.425-1.147c0.284-0.296,0.66-0.444,1.129-0.444
		s0.851,0.148,1.147,0.444c0.296,0.296,0.443,0.679,0.443,1.147s-0.147,0.845-0.443,1.128c-0.297,0.284-0.679,0.426-1.147,0.426
		s-0.845-0.142-1.129-0.426C245.5,54.882,245.359,54.506,245.359,54.038z M245.655,78.346v-18.5h2.59v18.5H245.655z"/>
	<path fill="#C9C9C9" d="M266.415,69.208c0,1.332-0.179,2.571-0.536,3.719c-0.357,1.146-0.895,2.146-1.609,2.996
		c-0.716,0.852-1.616,1.518-2.701,1.998c-1.086,0.481-2.355,0.722-3.811,0.722c-1.456,0-2.72-0.253-3.793-0.759
		c-1.073-0.505-1.967-1.189-2.683-2.053s-1.252-1.875-1.609-3.034s-0.536-2.393-0.536-3.7c0-1.332,0.179-2.571,0.536-3.719
		c0.357-1.146,0.894-2.146,1.609-2.996c0.716-0.852,1.609-1.518,2.683-1.998c1.073-0.481,2.337-0.723,3.793-0.723
		c1.455,0,2.725,0.248,3.811,0.74c1.085,0.494,1.985,1.172,2.701,2.035c0.715,0.863,1.252,1.875,1.609,3.034
		S266.415,67.875,266.415,69.208z M263.677,69.17c0-1.061-0.111-2.041-0.333-2.941c-0.223-0.9-0.568-1.684-1.036-2.35
		c-0.469-0.666-1.079-1.189-1.832-1.572c-0.752-0.383-1.659-0.574-2.719-0.574c-1.062,0-1.961,0.186-2.701,0.555
		c-0.74,0.371-1.345,0.883-1.813,1.536s-0.813,1.437-1.036,2.35c-0.222,0.913-0.333,1.899-0.333,2.96
		c0,1.036,0.111,2.011,0.333,2.923c0.223,0.913,0.567,1.702,1.036,2.368s1.073,1.19,1.813,1.572c0.74,0.383,1.64,0.574,2.701,0.574
		c1.06,0,1.967-0.186,2.719-0.556c0.753-0.37,1.363-0.888,1.832-1.554c0.468-0.666,0.813-1.449,1.036-2.35
		C263.566,71.211,263.677,70.231,263.677,69.17z"/>
	<path fill="#C9C9C9" d="M280.135,78.346v-11.84c0-1.555-0.463-2.72-1.388-3.496c-0.925-0.777-2.066-1.166-3.423-1.166
		c-0.716,0-1.363,0.143-1.942,0.426c-0.58,0.283-1.098,0.642-1.554,1.072c-0.457,0.432-0.852,0.895-1.185,1.388
		c-0.333,0.494-0.623,0.95-0.869,1.369v12.247h-2.59V59.809h2.59v2.516c0.592-0.789,1.394-1.461,2.405-2.016
		c1.011-0.555,2.244-0.833,3.699-0.833c0.938,0,1.819,0.143,2.646,0.426c0.826,0.284,1.548,0.697,2.165,1.239
		c0.616,0.543,1.104,1.221,1.461,2.035s0.537,1.752,0.537,2.813v12.357H280.135z"/>
	<path fill="#C9C9C9" d="M294.464,64.212c-0.617-0.814-1.283-1.412-1.998-1.795c-0.716-0.382-1.566-0.573-2.553-0.573
		c-1.258,0-2.141,0.234-2.646,0.703c-0.506,0.469-0.759,1.061-0.759,1.775c0,0.494,0.117,0.913,0.352,1.258
		c0.234,0.346,0.542,0.643,0.925,0.889s0.826,0.463,1.332,0.647s1.03,0.364,1.572,0.536c0.666,0.223,1.332,0.463,1.998,0.722
		s1.277,0.599,1.832,1.018c0.555,0.42,1.005,0.932,1.351,1.536c0.345,0.604,0.518,1.363,0.518,2.275
		c0,0.838-0.173,1.591-0.518,2.256c-0.346,0.666-0.814,1.229-1.406,1.684c-0.592,0.457-1.289,0.803-2.091,1.037
		s-1.659,0.352-2.571,0.352c-1.406,0-2.651-0.241-3.737-0.723c-1.085-0.48-2.108-1.275-3.07-2.386l1.924-1.776
		c1.282,1.727,2.947,2.59,4.995,2.59c1.332,0,2.318-0.259,2.96-0.777c0.641-0.518,0.962-1.146,0.962-1.887
		c0-0.566-0.117-1.041-0.352-1.424s-0.555-0.709-0.962-0.98s-0.876-0.5-1.406-0.685s-1.092-0.364-1.684-0.536
		c-0.666-0.197-1.326-0.42-1.979-0.666c-0.653-0.247-1.239-0.562-1.757-0.943c-0.519-0.383-0.944-0.87-1.277-1.463
		c-0.333-0.592-0.499-1.344-0.499-2.256c0-1.629,0.567-2.887,1.702-3.774c1.134-0.888,2.602-1.332,4.402-1.332
		c1.283,0,2.424,0.222,3.423,0.666s1.955,1.222,2.867,2.331l-1.813,1.738L294.464,64.212z"/>
</g>
</svg>
