<?xml version="1.0" encoding="utf-8"?>
<!-- Generator: Adobe Illustrator 16.0.0, SVG Export Plug-In . SVG Version: 6.00 Build 0)  -->
<!DOCTYPE svg PUBLIC "-//W3C//DTD SVG 1.1//EN" "http://www.w3.org/Graphics/SVG/1.1/DTD/svg11.dtd">
<svg version="1.1" id="Layer_1" xmlns="http://www.w3.org/2000/svg" xmlns:xlink="http://www.w3.org/1999/xlink" x="0px" y="0px"
	 width="357px" height="135px" viewBox="0 0 357 135" enable-background="new 0 0 357 135" xml:space="preserve">
<g>
	<path fill="#5D917D" d="M37.697,111.724c-0.692-2.44-1.444-5.083-2.257-7.93c-0.692-2.44-1.494-5.195-2.409-8.266
		s-1.902-6.293-2.958-9.669h-0.366l-8.662,24.522l-3.904,1.342c-1.017-3.497-2.074-7.137-3.172-10.919
		c-0.936-3.253-2.013-6.872-3.233-10.858c-1.22-3.984-2.481-7.97-3.782-11.955c-0.366-1.18-0.986-2.044-1.86-2.594
		c-0.875-0.548-2.084-0.843-3.63-0.884c0-0.04-0.009-0.081-0.03-0.122c-0.02-0.04-0.03-0.081-0.03-0.122l0.366-2.623
		c0.935,0.041,1.83,0.082,2.684,0.122c0.732,0.041,1.484,0.061,2.257,0.061c0.772,0,1.423,0,1.952,0
		c1.057,0,2.125-0.031,3.203-0.092c1.077-0.061,2.022-0.131,2.836-0.213c0.976-0.122,1.911-0.244,2.806-0.366l0.183,0.427
		l-0.244,2.379c-2.074,0.163-3.468,0.407-4.179,0.732c-0.712,0.326-1.067,0.915-1.067,1.77c0,0.326,0.101,0.967,0.305,1.922
		c0.203,0.955,0.478,2.125,0.824,3.507c0.345,1.383,0.742,2.908,1.189,4.575c0.447,1.668,0.915,3.354,1.403,5.063
		c1.098,3.986,2.358,8.398,3.782,13.237h0.366l8.601-23.424l-1.098-3.354c-0.407-1.221-1.048-2.084-1.922-2.594
		c-0.875-0.507-2.064-0.802-3.568-0.884l-0.122-0.244l0.427-2.623c0.935,0.041,1.83,0.082,2.684,0.122
		c0.732,0.041,1.484,0.061,2.257,0.061c0.772,0,1.423,0,1.952,0c0.935,0,1.911-0.031,2.928-0.092
		c1.016-0.061,1.972-0.131,2.867-0.213c1.057-0.122,2.074-0.244,3.05-0.366l0.183,0.427l-0.244,2.379
		c-2.115,0.163-3.528,0.407-4.239,0.732c-0.712,0.326-1.068,0.936-1.068,1.83c0,0.244,0.112,0.845,0.336,1.8
		c0.223,0.956,0.508,2.114,0.854,3.478c0.345,1.362,0.741,2.877,1.189,4.544c0.447,1.668,0.915,3.354,1.403,5.063
		c1.098,4.026,2.358,8.479,3.782,13.359h0.366c0.488-1.382,1.077-2.999,1.769-4.85c0.691-1.85,1.403-3.771,2.135-5.765
		c0.732-1.992,1.453-3.984,2.165-5.978c0.711-1.992,1.352-3.813,1.922-5.46c0.569-1.646,1.026-3.029,1.373-4.148
		c0.345-1.117,0.518-1.839,0.518-2.165c0-0.772-0.326-1.321-0.976-1.647c-0.651-0.325-1.708-0.488-3.172-0.488h-3.05l-0.122-0.244
		l0.427-2.623c0.854,0.082,1.769,0.163,2.745,0.244c0.813,0.082,1.728,0.132,2.745,0.152c1.016,0.021,2.013,0.031,2.989,0.031
		c0.691,0,1.412,0,2.166,0c0.752,0,1.453-0.02,2.104-0.061c0.732-0.04,1.464-0.081,2.196-0.122l-0.427,2.867
		c-0.61,0.041-1.108,0.102-1.494,0.183c-0.387,0.082-0.723,0.224-1.007,0.428c-0.285,0.203-0.539,0.487-0.762,0.854
		c-0.224,0.366-0.438,0.854-0.641,1.464l-12.81,32.94L37.697,111.724z"/>
	<path fill="#5D917D" d="M78.017,111.419c-2.522,0-4.81-0.458-6.862-1.373c-2.054-0.915-3.833-2.205-5.337-3.873
		c-1.505-1.667-2.664-3.649-3.477-5.948c-0.814-2.297-1.22-4.849-1.22-7.655c0-3.009,0.519-5.825,1.556-8.448
		s2.449-4.899,4.239-6.832c1.789-1.931,3.914-3.447,6.375-4.544c2.46-1.098,5.094-1.647,7.899-1.647c2.562,0,4.9,0.458,7.015,1.373
		c2.114,0.915,3.935,2.196,5.459,3.843c1.525,1.646,2.704,3.629,3.538,5.947c0.833,2.317,1.25,4.859,1.25,7.625
		c0,3.05-0.529,5.887-1.586,8.51c-1.058,2.622-2.501,4.9-4.331,6.831c-1.83,1.933-3.986,3.447-6.466,4.545
		C83.588,110.87,80.904,111.419,78.017,111.419z M79.908,108.308c1.952,0,3.73-0.386,5.337-1.159
		c1.606-0.771,2.989-1.86,4.148-3.264c1.159-1.402,2.053-3.069,2.684-5.002c0.63-1.931,0.945-4.076,0.945-6.436
		c0-2.602-0.335-4.991-1.006-7.167c-0.671-2.175-1.616-4.035-2.836-5.582c-1.22-1.545-2.684-2.754-4.392-3.629
		s-3.599-1.312-5.673-1.312c-1.912,0-3.64,0.387-5.185,1.16c-1.546,0.772-2.888,1.859-4.026,3.264
		c-1.139,1.402-2.013,3.07-2.623,5.001c-0.61,1.933-0.915,4.078-0.915,6.436c0,2.604,0.335,4.993,1.006,7.168
		c0.671,2.176,1.596,4.036,2.775,5.581c1.179,1.546,2.602,2.756,4.27,3.63C76.085,107.872,77.915,108.308,79.908,108.308z"/>
	<path fill="#5D917D" d="M120.228,111.419c-2.522,0-4.81-0.458-6.862-1.373c-2.054-0.915-3.833-2.205-5.337-3.873
		c-1.505-1.667-2.664-3.649-3.477-5.948c-0.814-2.297-1.22-4.849-1.22-7.655c0-3.009,0.519-5.825,1.556-8.448
		s2.449-4.899,4.239-6.832c1.789-1.931,3.914-3.447,6.375-4.544c2.46-1.098,5.094-1.647,7.899-1.647c2.562,0,4.9,0.458,7.015,1.373
		c2.114,0.915,3.935,2.196,5.459,3.843c1.525,1.646,2.704,3.629,3.538,5.947c0.833,2.317,1.25,4.859,1.25,7.625
		c0,3.05-0.529,5.887-1.586,8.51c-1.058,2.622-2.501,4.9-4.331,6.831c-1.83,1.933-3.986,3.447-6.466,4.545
		C125.799,110.87,123.115,111.419,120.228,111.419z M122.119,108.308c1.952,0,3.73-0.386,5.337-1.159
		c1.606-0.771,2.989-1.86,4.148-3.264c1.159-1.402,2.053-3.069,2.684-5.002c0.63-1.931,0.945-4.076,0.945-6.436
		c0-2.602-0.335-4.991-1.006-7.167c-0.671-2.175-1.616-4.035-2.836-5.582c-1.22-1.545-2.684-2.754-4.392-3.629
		s-3.599-1.312-5.673-1.312c-1.912,0-3.64,0.387-5.185,1.16c-1.546,0.772-2.888,1.859-4.026,3.264
		c-1.139,1.402-2.013,3.07-2.623,5.001c-0.61,1.933-0.915,4.078-0.915,6.436c0,2.604,0.335,4.993,1.006,7.168
		c0.671,2.176,1.596,4.036,2.775,5.581c1.179,1.546,2.602,2.756,4.27,3.63C118.296,107.872,120.126,108.308,122.119,108.308z"/>
	<path fill="#5D917D" d="M162.439,111.419c-1.098-0.122-2.176-0.244-3.233-0.366c-0.936-0.082-1.901-0.163-2.897-0.244
		c-0.997-0.082-1.881-0.122-2.653-0.122c-0.773,0-1.566,0.04-2.379,0.122c-0.814,0.081-1.566,0.162-2.257,0.244
		c-0.814,0.122-1.607,0.244-2.379,0.366l0.366-2.807c0.935-0.162,1.708-0.375,2.318-0.641c0.61-0.264,1.098-0.589,1.464-0.976
		c0.366-0.386,0.62-0.874,0.763-1.464c0.142-0.589,0.213-1.312,0.213-2.166l0.061-25.619c0-1.302-0.143-2.176-0.427-2.623
		c-0.285-0.448-0.895-0.671-1.83-0.671c-0.204,0-0.427,0.01-0.671,0.03c-0.244,0.021-0.468,0.031-0.671,0.031
		c-0.244,0.041-0.488,0.061-0.732,0.061l-0.122-0.244l0.427-2.684c0.772,0.041,1.545,0.082,2.318,0.122
		c0.65,0.041,1.352,0.061,2.104,0.061c0.752,0,1.413,0,1.982,0c0.691,0,1.565-0.01,2.623-0.031c1.057-0.02,2.074-0.05,3.05-0.091
		c1.138-0.04,2.338-0.081,3.599-0.122c2.968,0,5.683,0.438,8.144,1.312c2.46,0.875,4.575,2.115,6.344,3.721
		c1.769,1.607,3.142,3.528,4.118,5.764c0.976,2.237,1.464,4.719,1.464,7.442c0,3.051-0.549,5.887-1.647,8.51
		c-1.098,2.623-2.592,4.901-4.483,6.832c-1.891,1.932-4.118,3.457-6.68,4.575S165.408,111.419,162.439,111.419z M159.268,74.575
		c-0.854,0-1.424,0.082-1.708,0.244c-0.285,0.163-0.448,0.529-0.488,1.099c-0.122,3.537-0.244,6.791-0.366,9.76
		s-0.224,5.603-0.305,7.899c-0.082,2.298-0.143,4.22-0.183,5.765c-0.041,1.546-0.061,2.664-0.061,3.354
		c0,1.099,0.111,2.014,0.335,2.745c0.223,0.732,0.619,1.312,1.189,1.738c0.569,0.428,1.352,0.723,2.349,0.885
		c0.996,0.163,2.266,0.244,3.813,0.244c2.196,0,4.168-0.396,5.917-1.189c1.748-0.793,3.233-1.922,4.453-3.386
		c1.22-1.464,2.155-3.242,2.806-5.337c0.65-2.095,0.976-4.463,0.976-7.107c0-5.407-1.607-9.546-4.819-12.413
		C169.962,76.008,165.327,74.575,159.268,74.575z"/>
	<path fill="#5D917D" d="M221.854,111.724c-0.692-2.44-1.444-5.083-2.257-7.93c-0.692-2.44-1.495-5.195-2.41-8.266
		s-1.901-6.293-2.958-9.669h-0.366l-8.662,24.522l-3.904,1.342c-1.017-3.497-2.073-7.137-3.172-10.919
		c-0.936-3.253-2.013-6.872-3.232-10.858c-1.221-3.984-2.481-7.97-3.782-11.955c-0.366-1.18-0.986-2.044-1.86-2.594
		c-0.875-0.548-2.085-0.843-3.63-0.884c0-0.04-0.009-0.081-0.03-0.122c-0.02-0.04-0.03-0.081-0.03-0.122l0.366-2.623
		c0.936,0.041,1.83,0.082,2.685,0.122c0.731,0.041,1.484,0.061,2.257,0.061s1.423,0,1.952,0c1.057,0,2.124-0.031,3.202-0.092
		c1.077-0.061,2.022-0.131,2.837-0.213c0.976-0.122,1.911-0.244,2.806-0.366l0.184,0.427l-0.244,2.379
		c-2.074,0.163-3.468,0.407-4.179,0.732c-0.712,0.326-1.067,0.915-1.067,1.77c0,0.326,0.101,0.967,0.305,1.922
		c0.203,0.955,0.478,2.125,0.823,3.507c0.346,1.383,0.742,2.908,1.19,4.575c0.446,1.668,0.914,3.354,1.402,5.063
		c1.099,3.986,2.358,8.398,3.782,13.237h0.366l8.601-23.424l-1.098-3.354c-0.407-1.221-1.048-2.084-1.922-2.594
		c-0.875-0.507-2.064-0.802-3.568-0.884l-0.122-0.244l0.427-2.623c0.936,0.041,1.83,0.082,2.685,0.122
		c0.731,0.041,1.483,0.061,2.257,0.061c0.772,0,1.423,0,1.952,0c0.935,0,1.911-0.031,2.928-0.092
		c1.016-0.061,1.972-0.131,2.867-0.213c1.057-0.122,2.074-0.244,3.05-0.366l0.183,0.427l-0.243,2.379
		c-2.115,0.163-3.529,0.407-4.24,0.732c-0.712,0.326-1.067,0.936-1.067,1.83c0,0.244,0.111,0.845,0.336,1.8
		c0.223,0.956,0.508,2.114,0.854,3.478c0.346,1.362,0.742,2.877,1.189,4.544c0.447,1.668,0.915,3.354,1.403,5.063
		c1.098,4.026,2.358,8.479,3.782,13.359h0.366c0.487-1.382,1.076-2.999,1.769-4.85c0.691-1.85,1.403-3.771,2.135-5.765
		c0.732-1.992,1.454-3.984,2.166-5.978c0.711-1.992,1.352-3.813,1.921-5.46c0.569-1.646,1.027-3.029,1.373-4.148
		c0.345-1.117,0.519-1.839,0.519-2.165c0-0.772-0.326-1.321-0.977-1.647c-0.65-0.325-1.708-0.488-3.172-0.488h-3.05l-0.122-0.244
		l0.427-2.623c0.854,0.082,1.77,0.163,2.745,0.244c0.813,0.082,1.729,0.132,2.745,0.152c1.016,0.021,2.013,0.031,2.989,0.031
		c0.69,0,1.412,0,2.165,0c0.752,0,1.454-0.02,2.104-0.061c0.732-0.04,1.464-0.081,2.196-0.122l-0.427,2.867
		c-0.61,0.041-1.108,0.102-1.495,0.183c-0.387,0.082-0.722,0.224-1.006,0.428c-0.285,0.203-0.54,0.487-0.763,0.854
		c-0.224,0.366-0.438,0.854-0.641,1.464l-12.81,32.94L221.854,111.724z"/>
	<path fill="#5D917D" d="M272.91,103.794c0.244,0.772,0.519,1.413,0.823,1.921c0.305,0.509,0.681,0.937,1.129,1.281
		c0.446,0.346,0.985,0.601,1.616,0.763c0.63,0.163,1.393,0.285,2.287,0.366l0.122,0.243l-0.427,2.501
		c-0.854,0-1.668-0.021-2.44-0.061c-0.691-0.041-1.402-0.071-2.135-0.092c-0.731-0.021-1.363-0.03-1.891-0.03
		c-1.18,0-2.309,0.03-3.386,0.092c-1.078,0.061-2.044,0.131-2.897,0.213c-1.017,0.122-1.952,0.224-2.806,0.306l-0.184-0.428
		l0.244-2.379c2.114-0.162,3.548-0.405,4.301-0.731c0.752-0.325,1.128-0.854,1.128-1.586c0-0.772-0.183-1.748-0.549-2.929
		l-2.013-6.648c-0.366,0-0.823-0.01-1.373-0.03c-0.549-0.021-1.118-0.031-1.708-0.031s-1.18,0-1.769,0c-0.59,0-1.089,0-1.494,0
		c-1.181,0-2.41,0.062-3.69,0.184c-1.281,0.122-2.268,0.224-2.959,0.305l-2.257,6.344c-0.366,1.099-0.549,1.892-0.549,2.379
		c0,0.896,0.284,1.536,0.854,1.922c0.569,0.387,1.504,0.579,2.807,0.579h3.477l0.122,0.244l-0.366,2.623
		c-0.895-0.041-1.81-0.102-2.745-0.183c-0.813-0.082-1.718-0.144-2.714-0.184c-0.997-0.041-2.004-0.061-3.02-0.061
		c-0.732,0-1.495,0.01-2.288,0.03s-1.516,0.051-2.165,0.092c-0.773,0.04-1.525,0.061-2.257,0.061l0.487-2.866
		c1.139-0.122,2.044-0.509,2.715-1.159s1.352-1.83,2.044-3.538l11.895-31.171l3.843-1.037h0.488
		c1.016,3.701,2.053,7.442,3.111,11.224c0.446,1.627,0.935,3.335,1.464,5.124c0.527,1.79,1.077,3.609,1.646,5.46
		s1.148,3.701,1.739,5.551C271.761,100.307,272.34,102.086,272.91,103.794z M253.938,94.034h5.368c0.813,0,1.789-0.03,2.929-0.091
		c1.138-0.062,2.053-0.132,2.744-0.214l-4.818-15.981h-0.427L253.938,94.034z"/>
	<path fill="#5D917D" d="M291.27,94.034l-0.183,9.089c0,1.099,0.04,1.974,0.122,2.623c0.081,0.651,0.274,1.159,0.579,1.525
		s0.752,0.601,1.342,0.701c0.59,0.103,1.373,0.153,2.349,0.153l0.122,0.243l-0.549,2.563c-0.814-0.041-1.535-0.071-2.165-0.092
		c-0.632-0.021-1.322-0.041-2.074-0.061c-0.753-0.021-1.495-0.031-2.227-0.031c-0.773,0-1.566,0-2.379,0
		c-0.814,0-1.566,0.021-2.257,0.062c-0.814,0.04-1.607,0.081-2.38,0.122l0.55-2.745c0.935-0.122,1.708-0.274,2.317-0.458
		c0.61-0.183,1.088-0.446,1.434-0.793c0.345-0.345,0.58-0.802,0.701-1.372c0.122-0.569,0.184-1.301,0.184-2.196l0.061-25.619
		c0-1.302-0.152-2.176-0.457-2.623c-0.305-0.448-0.905-0.671-1.8-0.671c-0.204,0-0.427,0.01-0.671,0.03
		c-0.244,0.021-0.468,0.031-0.671,0.031c-0.244,0.041-0.488,0.061-0.732,0.061l-0.122-0.244l0.428-2.684
		c0.854,0.041,1.687,0.082,2.501,0.122c0.69,0.041,1.434,0.061,2.227,0.061s1.474,0,2.043,0c0.528,0,1.21-0.01,2.044-0.031
		c0.833-0.02,1.656-0.05,2.471-0.091c0.935-0.04,1.931-0.081,2.988-0.122c3.822,0,6.822,0.854,8.998,2.562
		c2.175,1.708,3.264,4.047,3.264,7.016c0,2.439-0.784,4.677-2.349,6.709c-1.566,2.034-3.772,3.701-6.619,5.003l6.71,10.613
		c0.61,0.977,1.189,1.79,1.739,2.44c0.549,0.65,1.117,1.18,1.708,1.586c0.589,0.407,1.22,0.701,1.891,0.885
		c0.671,0.183,1.412,0.274,2.227,0.274l0.244,0.244l-0.366,2.073l-5.185,0.671c-1.018,0-2.104-0.519-3.264-1.555
		c-1.159-1.037-2.227-2.45-3.203-4.24l-6.526-11.834H291.27z M297.675,91.228c1.22-0.406,2.318-0.996,3.294-1.769
		c0.813-0.691,1.565-1.606,2.257-2.745s1.037-2.623,1.037-4.453c0-5.368-3.721-8.052-11.163-8.052c-0.448,0-0.731,0.091-0.854,0.274
		s-0.204,0.56-0.244,1.128c-0.082,1.627-0.163,3.122-0.244,4.483c-0.082,1.363-0.143,2.645-0.183,3.844
		c-0.041,1.199-0.082,2.348-0.122,3.446c-0.041,1.098-0.062,2.176-0.062,3.232L297.675,91.228z"/>
	<path fill="#5D917D" d="M334.701,111.419c-1.098-0.122-2.176-0.244-3.233-0.366c-0.936-0.082-1.901-0.163-2.897-0.244
		c-0.996-0.082-1.881-0.122-2.653-0.122s-1.565,0.04-2.379,0.122c-0.813,0.081-1.565,0.162-2.257,0.244
		c-0.813,0.122-1.607,0.244-2.379,0.366l0.366-2.807c0.935-0.162,1.708-0.375,2.317-0.641c0.61-0.264,1.099-0.589,1.464-0.976
		c0.366-0.386,0.62-0.874,0.763-1.464c0.143-0.589,0.214-1.312,0.214-2.166l0.061-25.619c0-1.302-0.143-2.176-0.427-2.623
		c-0.285-0.448-0.895-0.671-1.83-0.671c-0.204,0-0.427,0.01-0.671,0.03c-0.244,0.021-0.468,0.031-0.671,0.031
		c-0.244,0.041-0.488,0.061-0.732,0.061l-0.122-0.244l0.428-2.684c0.771,0.041,1.545,0.082,2.317,0.122
		c0.65,0.041,1.352,0.061,2.104,0.061c0.752,0,1.413,0,1.982,0c0.691,0,1.565-0.01,2.623-0.031c1.058-0.02,2.074-0.05,3.051-0.091
		c1.138-0.04,2.338-0.081,3.599-0.122c2.968,0,5.683,0.438,8.144,1.312c2.46,0.875,4.575,2.115,6.344,3.721
		c1.77,1.607,3.142,3.528,4.117,5.764c0.977,2.237,1.465,4.719,1.465,7.442c0,3.051-0.55,5.887-1.647,8.51s-2.593,4.901-4.483,6.832
		c-1.891,1.932-4.117,3.457-6.68,4.575C340.436,110.86,337.669,111.419,334.701,111.419z M331.529,74.575
		c-0.854,0-1.424,0.082-1.708,0.244c-0.285,0.163-0.448,0.529-0.488,1.099c-0.122,3.537-0.244,6.791-0.366,9.76
		c-0.121,2.969-0.224,5.603-0.305,7.899c-0.082,2.298-0.143,4.22-0.183,5.765c-0.041,1.546-0.062,2.664-0.062,3.354
		c0,1.099,0.111,2.014,0.336,2.745c0.223,0.732,0.619,1.312,1.189,1.738c0.569,0.428,1.352,0.723,2.349,0.885
		c0.996,0.163,2.267,0.244,3.813,0.244c2.195,0,4.168-0.396,5.917-1.189c1.748-0.793,3.232-1.922,4.453-3.386
		c1.22-1.464,2.154-3.242,2.806-5.337c0.65-2.095,0.976-4.463,0.976-7.107c0-5.407-1.606-9.546-4.818-12.413
		C342.225,76.008,337.588,74.575,331.529,74.575z"/>
</g>
<g>
	<g>
		<path fill="#b7b7a7" d="M242.18,16.933l-0.191-1.143l-0.369-1.097l-0.123-1.139l-1.092,0.369l-1.09,0.419l-1.145,0.249
			l-1.098,0.396l-1.133,0.281l-1.102,0.387l-1.1,0.392l-1.125,0.308l-1.08,0.443l-1.104,0.367l-1.158,0.192l-1.078,0.456
			l-1.152,0.214l-1.156,0.196l-1.105,0.388l-1.139,0.256l-1.098,0.412l-1.129,0.307l-1.141,0.24l-1.102,0.396l-1.164,0.155
			l-1.125,0.322l-1.117,0.349l-1.131,0.291l-1.117,0.344l-1.156,0.2l-1.174,0.121l-1.096,0.445l-1.182,0.104l-1.139,0.273
			l-1.1,0.455l-1.17,0.147l-1.178,0.098l-1.115,0.408l-1.158,0.195l-1.127,0.328l-1.188,0.017l-1.133,0.327l-1.18,0.104
			l-1.145,0.279l-1.152,0.271l-1.186,0.028l-1.146,0.309l-1.178,0.097l-1.158,0.187l0.102,0.185l-0.391,0.229l-0.072,0.15
			l-0.113,0.123l-0.207-0.096l-0.064-0.256l-0.301-0.166l0.084,0.015l-1.113,0.022l-1.121,0.122l-1.144-0.019l-1.108,0.308
			l-1.134,0.054l-1.131,0.088l-1.135-0.001l-1.125,0.131l-1.122,0.183l-1.134,0.037l-1.135,0.026l-1.134,0.033l-1.13,0.09
			l-1.126,0.158l-1.141-0.063l-1.141-0.05l-1.132,0.084l-1.137,0.059l-1.135,0.152l-1.144,0.039l-0.014,0.008l-0.144,0.044
			l0.005-0.023l-1.169-0.096l-1.154,0.263l-1.164,0.064l-1.168-0.062l-1.17-0.081l-1.165,0.056l-1.166,0.063l-1.166,0.029
			l-1.158,0.229l-1.172-0.075l-1.159,0.229l-1.177-0.188l-1.164,0.123l-1.167,0.067l-1.162,0.15l-1.172-0.027l-1.164,0.137
			l-1.166,0.104l-1.166,0.081l-1.173-0.011l-1.161,0.168l-1.167,0.068l-1.164,0.118l-1.181-0.072l-1.153,0.241l-1.16,0.166
			l-1.168,0.064l-1.171,0.051l-1.156,0.188l-1.166,0.11l-1.164,0.125l-1.145,0.272l-1.179,0.015l-1.165,0.128l-1.133,0.336
			l-1.181,0.02L123.635,31l-1.167,0.122l-1.147,0.24l-1.135,0.293l-1.149,0.213l-1.162,0.152l-1.158,0.172l-1.154,0.196
			l-1.125,0.331l-1.17,0.129l-1.125,0.327l-1.111,0.387l-1.188,0.083l-1.102,0.438l-1.14,0.272l-1.174,0.14l-1.114,0.368
			l-1.105,0.393l-1.166,0.176l-1.092,0.425l-1.119,0.333l-1.153,0.228l-1.125,0.32l-1.113,0.36l-1.061,0.502l-1.14,0.29
			l-1.004,0.639l-1.129,0.319l-1.125,0.337l-1.034,0.553l-1.096,0.41l-1.067,0.469l-1.003,0.603l-1.06,0.489l-1.001,0.597
			l-1.081,0.458l-0.915,0.741l-0.98,0.619l-1.059,0.505l-0.995,0.607L79.75,45.92l-0.846,0.807l-0.915,0.705l-0.93,0.688
			l-0.924,0.74l-0.453,1.092l-0.195,1.164l0.211,1.155l0.453,1.073l0.277,1.133L77,55.491l0.588,1.005l0.722,0.918l0.63,0.977
			l0.776,0.874l0.627,0.98l0.834,0.75l0.805,0.773l0.91,0.648l0.79,0.807l1.003,0.523l1.028,0.456l0.968,0.564l1.032,0.458
			l1.101,0.271l1.135-0.002l1.109-0.139l1.132-0.143l0.926-0.658l0.881-0.668l0.89-0.744l0.931-0.694l0.939-0.682l0.909-0.722
			l0.905-0.726l1.034-0.557l0.8-0.86l0.986-0.613l0.962-0.647l0.907-0.727l1.07-0.49l0.971-0.636l0.92-0.716l1.067-0.486l0.95-0.677
			l1.085-0.449l0.939-0.702l0.984-0.627l1.058-0.488l1.046-0.508l1.047-0.509l1.064-0.476l1.041-0.527l1.063-0.482l1.079-0.448
			l1.164-0.241l1.03-0.572l1.084-0.435l1.164-0.21l1.059-0.518l1.158-0.22l1.097-0.413l1.12-0.347l1.169-0.162l1.105-0.323
			l1.131-0.198l1.106-0.346l1.167-0.079l-0.154-0.137l0.129,0.004l0.042-0.152l0.298,0.062l0.036-0.101l0.095,0.211l1.145-0.134
			l1.126-0.219l1.122-0.245l1.125-0.199l1.137-0.123l1.134-0.151l1.118-0.266l1.157,0.004l1.135-0.147l1.133-0.17l1.128-0.218
			l1.132-0.196l1.146-0.088l1.139-0.111l1.146-0.047l1.14-0.12l1.129-0.23l1.148-0.057l1.145-0.098l1.138-0.15l1.143-0.111
			l1.156,0.022l1.136-0.22l1.155,0.002l1.142-0.158l1.16,0.068l1.139-0.223l1.147-0.092l1.152-0.084l1.159,0.023l1.146-0.144
			l1.139-0.206l1.149-0.058l1.154-0.023l1.137-0.173l1.115-0.059l0.094-0.341l-0.159-0.708l0.231,0.032l0.079-0.261l-0.153-0.863
			l0.014-0.975l0.646,0.246l0.454,0.094l-0.134-0.607l0.222-0.008l-0.036,0.454l1.019,0.102l-0.067-0.344l0.081,0.123l0.019,0.948
			l-0.115,1.211l-0.535,0.31l0.209,0.462l1.065-0.112l1.135-0.125l1.152,0.11l1.127-0.218l1.15,0.073l1.129-0.165l1.143-0.01
			l1.127-0.173l1.123-0.257l1.142,0.036l1.126-0.175l1.15,0.021l1.119-0.285l1.156,0.085l1.115-0.264l1.123-0.182l1.145,0.004
			l1.115-0.227l1.111-0.246l1.154,0.027l1.105-0.275l1.109-0.235l1.109-0.214l1.154-0.165l1.133-0.28l1.115-0.356l1.137-0.26
			l1.137-0.241l1.146-0.217l1.168-0.128l1.115-0.35l1.17-0.078l1.09-0.444l1.145-0.204l1.162-0.132l1.092-0.448l1.193-0.02
			l1.084-0.458l1.176-0.081l1.129-0.299l1.133-0.274l1.154-0.187l1.113-0.374l1.135-0.285l1.117-0.356l1.137-0.272l1.16-0.194
			l1.17-0.132l1.1-0.433l1.158-0.185l1.156-0.192l1.109-0.372l1.131-0.287l1.129-0.286l1.123-0.319l1.145-0.246l1.141-0.232
			l1.143-0.246l1.139-0.231l1.236-0.201l-0.393-1.139l0.02-1.12l-0.191-1.085l-0.396-1.041l-0.189-1.084l-0.24-1.072l-0.098-1.104
			l-0.283-1.063l-0.223-1.073L242.18,16.933z M80.908,57.313l-1.098-0.23l-0.136-0.177l0.527-0.223l0.632,0.256l0.168,0.063
			L80.908,57.313z M88.622,55.01l-0.217-0.073l-0.117,0.045l0.056-0.236l0.351-0.141L88.622,55.01z M91.691,64.675l0.071-0.573
			l0.357-0.204l-0.004,0.725L91.691,64.675z M93.152,61.568l0.091-0.226l0.274-0.109l0.049,0.428L93.152,61.568z M94.005,62.021
			l-0.184-0.138l-0.067-0.22l0.216,0.189L94.005,62.021z M99.491,55.032l-0.281-0.031l-0.101-0.44l0.293,0.04L99.491,55.032z
			 M106.49,42.437l-0.513-0.45l0.665-0.107L106.49,42.437z M107.486,45.652l0.042-0.444l0.265,0.396L107.486,45.652z
			 M108.604,53.462l-0.069-0.564l0.283-0.072l-0.037,0.569L108.604,53.462z M120.503,44.804l-0.124,0.13l-0.536,0.085l-0.142-0.963
			l0.672,0.009l0.078,0.104L120.503,44.804z M128.62,34.01l-0.098-0.278l-0.141-0.021l0.08-0.082l0.007-0.013l-0.084-0.127
			l0.041,0.077l0.032,0.047l-0.032,0.087l0.114,0.041l0.226,0.173L128.62,34.01z M134.201,43.951l-0.509,0.141l-0.15-0.048
			l0.24-0.575l0.467,0.241L134.201,43.951z M135.786,36.266l-0.083,0.189l-0.496,0.107l-0.06-0.389l0.253-0.315l0.501,0.344
			L135.786,36.266z M138.8,37.182l0.21-0.483l-0.122-0.027l-0.203-0.338l0.303-0.139l0.204,0.966L138.8,37.182z M140.133,39.237
			l-0.034-0.167l-0.041-0.223l0.398-0.244l0.078-0.083l0.107-0.008L140.133,39.237z M141.838,37.938l-0.395,0.067l0.405-0.621
			L141.838,37.938z M144.172,30.179l0.856-0.063l0.168,0.33l-0.11,0.284L144.172,30.179z M145.448,34.155l0.079-0.246l-0.27,0.139
			l-0.588-0.031l-0.175-1.172l0.063-0.027l0.115-0.189h-0.029l0.57,0.476l-0.008-0.072l0.294,0.709l0.115,0.284L145.448,34.155z
			 M145.905,41.545l-0.125-0.702l0.393-0.092l0.054-0.154l0.202,0.444l0.155,0.322L145.905,41.545z M148.582,37.417l-0.158-0.044
			l0.006,0.153l-0.388,0.163l-0.024-0.025l-0.143-0.06l0.081-0.038l0.117-0.125l0.383-0.111L148.582,37.417z M150.307,38.196
			l-0.301,0.321l-0.213,0.098l-0.104-0.34l-0.182-0.667l0.168-0.094l0.819-0.029L150.307,38.196z M152.249,32.245l-0.427,0.017
			l-0.071-0.069l-0.164-0.095l0.008-0.116l0.642,0.073L152.249,32.245z M154.903,37.447l-0.296-0.076l-0.051-0.289l0.355,0.104
			L154.903,37.447z M155.813,28.554l-0.289,0.116l-0.368,0.276l-0.002-0.227l0.055-0.463l0.522-0.047L155.813,28.554z
			 M157.824,30.817l0.028-0.135l-0.108-0.762l0.509,0.483l0.101,0.071l0.061-0.009l-0.107,0.063l0.229,0.16L157.824,30.817z
			 M158.95,30.999l0.092-0.302l0.275,0.281L158.95,30.999z M160.209,33.53l-0.064,0.174l-0.272,0.113l-0.009-0.156l-0.009-0.513
			l0.035-0.066l0.348,0.364l0.092-0.004L160.209,33.53z M162.785,30.408l-1.205,0.299l-0.101-0.736l0.974-0.221l0.003,0.112
			l0.282-0.024L162.785,30.408z M167.297,36.087l-0.146-0.294l0.007-0.207l1.051,0.384L167.297,36.087z M170.191,31.211
			l-0.817-0.192l-0.063-0.207l0.172-0.222l0.112-0.327l0.364-0.077l-0.11,0.402l0.267-0.025L170.191,31.211z M171.868,37.159
			l-0.083,0.535l-0.45,0.331l-0.437-0.329l0.007-0.134l0.866-1.032l0.162-0.168l-0.181-0.106l-0.196-0.06l0.227-0.214l0.179,1.142
			L171.868,37.159z M174.058,34.146l0.085-0.545l-0.157,0.019l-0.066-0.211l0.013-0.111l0.251-0.026L174.058,34.146z
			 M177.355,31.298l0.05-0.346l-0.333,0.043l0.104-0.52l0.047,0.015l0.701,0.857L177.355,31.298z M181.722,37.422L181.696,37h0.76
			L181.722,37.422z M183.026,34.266l-0.537,0.163l-0.442,0.228l0.164-0.452l0.431,0.013l-0.221-0.48l0.039,0.039l0.457,0.159
			L183.026,34.266z M184.835,34.247l-0.437-0.079l-0.041-0.299l0.446,0.107L184.835,34.247z M221.438,19.726l-0.086,0.743
			l0.18-0.126l-0.008,0.134l0.146,0.611l-0.322,0.054l0.043-0.401l-0.199-1.014L221.438,19.726z M193.086,36.886l-0.502-0.463
			l0.352-0.29l0.178,0.062L193.086,36.886z M195.645,34.524l-0.219-0.334l-0.068-0.161l0.137,0.002l0.135,0.036l0.109,0.175
			l-0.066,0.205L195.645,34.524z M196.525,31.222l-0.344-0.037l-0.199-0.284l0.461-0.141L196.525,31.222z M199.789,35.791
			l-0.086,0.206l-0.365,0.096l-0.563-0.517l-0.342,0.056l-0.266,0.039l0.332-0.861l-0.586,0.005l0.066-0.263l0.33,0.172l0.211,0.074
			l-0.025,0.364l0.303-0.105l0.344-0.133l0.336,0.02l0.389,0.696l-0.072,0.106L199.789,35.791z M200.354,26.633l0.781,0.216
			l0.244,0.523l-0.932-0.02L200.354,26.633z M203.018,32.167l-0.422-0.061l0.031,0.181l-0.322,0.309l-0.283,1.352l0.043,0.119
			l0.033,0.158l0.303,0.152l-0.238,0.814l0.119,0.218l0.275-0.042l0.021,0.137l-0.025,0.052l-0.041,0.308l-0.879-0.136l-0.043-0.096
			l-0.727-0.104v-0.322l0.326-0.045l0.037-0.417l0.404-0.081l-0.031-0.264l-0.072-0.622l0.023-0.023l0.137-1.013l-0.508,0.002
			l-0.02-0.314l0.9,0.229l-0.086-0.942l0.426,0.027l0.459,0.116L203.018,32.167z M204.668,33.398l-0.176,0.008l-0.502,0.122
			l0.293-0.239l0.295,0.007L204.668,33.398z M208.35,35.396l0.027-0.208l0.441,0.121L208.35,35.396z M211.186,29.673l-0.143-0.095
			l-0.4-0.568l0.461,0.205l0.162,0.171l1.191-0.036L211.186,29.673z M212.465,29.402l0.074-0.253l0.361,0.061L212.465,29.402z
			 M213.99,26.113l-0.738,0.243l-0.117-0.308l0.385-0.131l0.609-0.165L213.99,26.113z M215.08,28.066l-0.885,0.086l-0.043-0.282
			l0.895-0.031L215.08,28.066z M215.209,22.713l0.348,0.255L215.209,22.713z M216.576,29.613l-0.545-0.039l-0.088-0.626
			l-0.371-0.064l0.008-0.648l0.162-0.087l-0.037,0.193l0.121,0.17l0.727,0.033L216.576,29.613z M218.639,22.507l-0.328-0.023
			l-0.041,0.153l-0.6-0.32l0.008-0.539l0.908,0.174L218.639,22.507z M218.572,31.173l0.656,0.216L218.572,31.173z M219.977,23.577
			l0.492,0.081l-0.121-0.193l0.256,0.191l0.104,0.185l-0.719,0.049L219.977,23.577z M221.428,31.3l-1.078,0.093l-0.229-0.122
			l-0.008-0.272l0.59,0.01l-0.043-0.642l0.385,0.161l0.035,0.497l0.314,0.06L221.428,31.3z M220.416,27.15l0.188-0.229l0.373,0.075
			l-0.035,0.136l-0.111,0.192l-0.156-0.032L220.416,27.15z M221.555,25.531l-0.93-0.796l0.139,0.501l-0.252-0.029l0.229-1.31
			l0.186,0.003l-0.117,0.665l0.264,0.047l0.623,0.802L221.555,25.531z M225.236,22.224l0.307-0.35l0.107,0.737l-0.529,0.298
			L225.236,22.224z M225.596,25.489l-0.086-0.226l0.68-0.024L225.596,25.489z M231.488,27.15l0.033-0.21l0.34-0.161l0.039,0.125
			l0.033,0.144L231.488,27.15z M232.465,25.9l0.029-0.235l0.324,0.147L232.465,25.9z M234.703,23.788l0.01-0.451l0.152-0.067
			l-0.043,0.406l-0.004,0.097L234.703,23.788z M236.771,27.418l-0.242,0.003l-0.119-0.16l0.289-0.05L236.771,27.418z"/>
	</g>
	<g>
		<polygon fill="#b7b7a7" points="280.971,11.314 280.541,10.198 280.029,9.111 279.262,8.183 278.258,7.541 277.266,6.88 
			276.068,6.914 274.906,7.011 274.455,7.006 274.621,8.173 274.945,9.272 275.344,10.354 275.477,11.499 276.025,12.539 
			276.24,13.667 276.557,14.772 276.754,15.907 277.043,17.021 277.436,18.078 278.545,17.691 279.67,17.287 280.814,16.912 
			281.422,15.93 281.713,14.791 281.461,13.632 281.25,12.471 		"/>
	</g>
	<g> <path fill="#b7b7a7" d="M267.318,56.631l1.186,0.117l1.172-0.204l1.186,0.08l1.17-0.188l1.176-0.069l1.18-0.047l1.143-0.326
			l1.15-0.244l1.17-0.129l1.146-0.274l1.123-0.34l1.047-0.529l1.072-0.45l0.988-0.644l0.607-1.002l0.324-1.112l-0.268-1.125
			l-0.186-1.141l-0.398-1.085l-0.438-1.04l-0.334-1.07l-0.219-1.109l-0.482-1.032l-0.307-1.083l-0.334-1.074l-0.143-1.13
			l-0.303-1.083l-0.4-1.057l-0.408-1.054l-0.354-1.072l-0.273-1.093l-0.217-1.108l-0.504-1.022l-0.195-1.113l-0.316-1.08
			l-0.24-1.098l-0.504-1.028l-0.098-1.146l-0.416-1.056l-0.172-1.125l-0.479-1.04l-0.135-1.133l-0.438-1.057l-0.322-1.083
			l-0.207-1.107l-0.279-1.089l-0.568-1.349l0.064-0.505l-0.422-1.167l-0.086-0.536l-0.514-1.314l0.066-0.229l-0.475-1.498
			l-0.115-0.08l-0.258-1.264l0.033-0.326l-0.268-0.939l-0.104-0.275l-0.105-0.854l-0.193-0.196l-0.221-0.746l-0.035-0.958
			l-0.336-1.109l-0.184-1.15l-0.402-1.092l-0.621-0.986l-0.492-1.062l-0.912-0.768l-1.176-0.165L266.297,0.1l-1.092,0.45
			l-1.16,0.197l-1.143,0.241l-1.117,0.203l-1.055,0.443l-1.123,0.148l-1.09,0.295l-1.063,0.397l-1.127,0.163l-1.113,0.221
			l-1.09,0.287l-1.08,0.354l-1.09,0.317l-1.115,0.219l-1.1,0.278l-1.072,0.375l-1.123,0.189l-1.18,0.37l-1.055,0.64l-0.857,0.847
			l-0.57,1.064l-0.027,1.2l-0.035,1.201l0.176,1.194l0.164,1.203l-0.004,0.011l0.287,1.234l0.223,0.491l0.023,0.776l0.357,1.16
			l0.158,1.203l0.355,1.158l0.242,1.186l0.203,1.196l0.463,1.14l0.201,1.199l0.129,1.229l0.211-0.096l0.076-0.04l-0.031,0.196
			l0.164-0.022l-0.154,0.341l-0.242-0.151l0.293,1.101l0.115,1.094l0.297,1.105l0.078,1.141l0.143,1.13l0.209,1.123l0.234,1.12
			l0.029,1.144l0.227,1.123l-0.061,1.148l0.215,1.127l-0.117,1.144l0.014,1.137l0.213,1.129l0.139,1.137l-0.049,1.144l0.002,1.141
			l0.078,1.141l-0.137,1.138l0.15,1.144l-0.107,1.142l-0.088,1.137l-0.123,1.143l-0.041,1.145l0.059,1.167l0.078,1.155l0.145,1.18
			l0.949,0.726l1.096,0.387l1.131,0.383l1.193-0.102l1.17,0.204l1.178-0.179l1.18,0.207l1.174-0.153l1.18,0.025l1.174-0.032
			l1.18,0.06l1.17-0.252l1.189,0.189l1.17-0.239l1.191,0.141L267.318,56.631z M279.021,43.293l0.191-0.176l0.119,0.233l0.244,0.107
			l0.646-0.195l-0.033,0.2l0.023,0.146l0.076-0.007l-0.5-0.009l0.08,0.757l-0.211-0.027l-0.123,0.015l-0.361,0.021l-0.203-0.642
			L279,43.724L279.021,43.293z M274.854,27.05l0.521,0.128l0.26,0.827l-0.109,0.323l0.5-0.086l-0.021,0.136l-0.199-0.117
			l-0.557,0.127l-0.596,0.017L274.854,27.05z M273.688,33.247l0.182,0.091l0.137,0.225l-0.188-0.113l-0.07,0.075L273.688,33.247z
			 M273.688,35.08l0.205,0.112l0.105-0.01l-0.029,0.178l0.313,0.217l-0.064-0.037l-0.367-0.252L273.688,35.08z M267.166,46.721
			l0.146-0.71l0.369,0.619L267.166,46.721z M271.332,26.632l0.412,0.243l0.057,0.124l-0.262-0.078l-0.246,0.146L271.332,26.632z
			 M270.895,24.5l0.334,0.143l-0.016,0.325l-0.203-0.351l-0.156,0.165L270.895,24.5z M270.381,28.369l0.24,0.045l0.109,0.284
			l-0.324-0.121l0.049,0.15l-0.014-0.016l0.037-0.055L270.381,28.369z M270.191,49.985l0.475,0.289l0.586,0.219l-1.043,0.034
			L270.191,49.985z M269.209,49.042l0.736,0.313l0.072,0.111l-0.367-0.024l-0.889,0.287l0.234-0.296L269.209,49.042z
			 M268.551,19.303l0.227,0.074l0.188,0.37l-0.23-0.062l0.09,0.268l-0.158-0.019L268.551,19.303z M268.262,30.313l0.074-0.016
			l0.063,0.38l-0.135-0.266l-0.023,0.069L268.262,30.313z M267.117,38.034l0.408,0.133l-0.107-0.325l0.148,0.061l0.094,0.673
			l-0.168,0.028l-0.322-0.258L267.117,38.034z M265.922,22.108l0.223-0.004l-0.197,0.391L265.922,22.108z M265.129,26.882
			l0.297,0.013l0.287,0.227l-0.664-0.154L265.129,26.882z M264.131,17.46l0.197,0.072l0.111,0.135l0.135,0.12l0.049,0.111
			l-0.385-0.035L264.131,17.46z M264.156,27.242l0.68-0.13l-0.047,0.577l-0.51-0.208L264.156,27.242z M263.451,35.041l-0.115,0.349
			l-0.381,0.018l0.023-0.21L263.451,35.041z M257.965,28.752l-0.203-0.104l-0.133,0.063l0.145-0.176l0.107-0.059L257.965,28.752z
			 M259.602,43.288l-0.377,0.186l-0.125-0.642l0.266,0.249l0.225,0.063L259.602,43.288z M262.334,49.336l-0.105,0.267l0.139-0.113
			l-0.053,0.031l-0.008,0.141l-0.025,0.046l-0.238-0.067L262.334,49.336z M260.451,17.183l0.5,0.148l0.1,0.189l-0.514-0.043
			L260.451,17.183z M260.531,48.326l-0.102,0.204l0.063,0.128l-0.197-0.15l-0.045,0.008l-0.045-0.1l0.014,0.109L260.531,48.326z
			 M259.807,54.577l0.049,0.875l-0.133,0.011L259.807,54.577z M258.539,19.996l0.217-0.232l0.002-0.075l0.24,0.21l0.402-0.278
			l0.141,0.106l-0.066,0.08l0.248,0.442l-1.301,0.42L258.539,19.996z M257.002,24.958l1.113,0.159l0.777,0.992l0.141,0.523
			l-0.297,0.499l0.045-0.009l-0.08,0.339l-0.125,0.049l-0.039-0.867l-0.43-0.041l-0.209-0.46l-0.203-0.698l-0.057-0.115
			l-0.631-0.102L257.002,24.958z M252.66,51.381l-0.125-0.059l0.131-0.608l0.127,0.109L252.66,51.381z M252.545,40.649l0.094-0.1
			l0.117,0.069L252.545,40.649z M253.475,41.275l-0.639-0.628l-0.199-0.138l0.391,0.32l0.438,0.152L253.475,41.275z M253.775,36.071
			l0.094-0.117l0.275,0.095L253.775,36.071z M255.361,39.407l-0.102,0.19l-0.145,0.118l0.102-0.18l-0.16-0.063L255.361,39.407z
			 M254.551,32.202l-0.006,0.161l0.09,0.292l-1.145,0.01l-0.164-0.505l0.137,0.008l0.293-0.622l0.432-0.12l0.076,0.462l-0.078,0.11
			L254.551,32.202z M253.654,23.133l0.291,0.23l0.398,0.263l-0.27-0.056l0.078,0.282l-0.383-0.029L253.654,23.133z M253.807,30.265
			l-0.336,0.624l-0.012-0.255l-0.348-0.233L253.807,30.265z M252.324,39.057l-0.271-0.106l0.074,0.268l-0.248,0.296l-0.287,0.129
			l0.002-0.028l-0.025-0.244l0.15-0.944l0.037-0.322l0.924,0.654l0.242,0.212L252.324,39.057z M252.832,21.217l-0.139,0.349
			l-0.291,0.182L252.832,21.217z M251.26,32.189l0.107,0.044l0.502-0.06l-0.066,0.065l-0.473,0.095L251.26,32.189z M250.396,24.351
			l0.139,0.07l0.576,0.218l-0.08,0.039l-0.545,0.093L250.396,24.351z"/>
	</g>
</g>
<g>
	<path fill="#f1f1f1" d="M86.208,134.315l-2.625-7.812h-0.146l-2.772,7.812H78.92l-4.283-13.461h1.68l0.23,1.302l3.276,10.29h0.147
		l2.897-8.189l-1.134-3.402h1.722l0.315,1.449l3.317,10.143h0.126l3.654-10.206l0.315-1.386h1.596l-4.83,13.461H86.208z"/>
	<path fill="#f1f1f1" d="M105.79,122.429c0.987,1.134,1.48,2.765,1.48,4.893c0,2.282-0.524,4.046-1.574,5.292
		c-1.051,1.246-2.541,1.869-4.474,1.869c-1.82,0-3.227-0.588-4.221-1.764c-0.994-1.177-1.491-2.849-1.491-5.02
		c0-2.239,0.521-3.962,1.564-5.166s2.537-1.806,4.483-1.806C103.392,120.728,104.803,121.295,105.79,122.429z M97.232,127.49
		c0,3.725,1.365,5.586,4.096,5.586c2.8,0,4.2-1.819,4.2-5.46c0-1.861-0.34-3.244-1.019-4.147c-0.68-0.902-1.712-1.354-3.098-1.354
		C98.625,122.114,97.232,123.906,97.232,127.49z"/>
	<path fill="#f1f1f1" d="M121.225,122.429c0.987,1.134,1.48,2.765,1.48,4.893c0,2.282-0.524,4.046-1.574,5.292
		c-1.051,1.246-2.541,1.869-4.474,1.869c-1.82,0-3.227-0.588-4.221-1.764c-0.994-1.177-1.491-2.849-1.491-5.02
		c0-2.239,0.521-3.962,1.564-5.166s2.537-1.806,4.483-1.806C118.828,120.728,120.239,121.295,121.225,122.429z M112.667,127.49
		c0,3.725,1.365,5.586,4.096,5.586c2.8,0,4.2-1.819,4.2-5.46c0-1.861-0.34-3.244-1.019-4.147c-0.68-0.902-1.712-1.354-3.098-1.354
		C114.061,122.114,112.667,123.906,112.667,127.49z"/>
	<path fill="#f1f1f1" d="M136.818,122.408c1.021,1.092,1.532,2.66,1.532,4.704c0,2.366-0.553,4.179-1.658,5.439
		c-1.106,1.26-2.695,1.89-4.768,1.89c-1.372,0-2.828-0.042-4.368-0.126h-0.021l0.104-4.053l-0.104-9.408h0.021l4.852-0.084
		C134.326,120.77,135.795,121.316,136.818,122.408z M135.484,131.637c0.763-0.931,1.145-2.32,1.145-4.168
		c0-3.528-1.449-5.292-4.347-5.292c-0.882,0-1.897,0.028-3.045,0.084l-0.084,7.854l0.063,2.793c0.979,0.084,1.975,0.126,2.982,0.126
		C133.625,133.034,134.721,132.569,135.484,131.637z"/>
	<path fill="#f1f1f1" d="M150.761,134.315h-7.56l0.104-4.053l-0.104-9.408h7.581l0.084,0.168l-0.126,1.302l-3.171-0.063
		l-2.667,0.042l-0.042,4.41l2.52,0.042l2.227-0.063l0.126,0.147l-0.147,1.302l-2.352-0.042l-2.395,0.021l-0.021,1.995l0.063,2.793
		l2.667,0.021l3.234-0.084l0.104,0.168L150.761,134.315z"/>
	<path fill="#f1f1f1" d="M165.797,134.315h-1.764l-6.951-10.773h-0.126l-0.021,6.343l0.063,4.431h-1.575l0.104-3.99l-0.063-9.471
		h1.764l6.931,10.772h0.146l-0.021-10.688l1.596-0.126l-0.126,9.555L165.797,134.315z"/>
	<path fill="#f1f1f1" d="M184.592,121.851c0.714,0.68,1.07,1.656,1.07,2.93c0,1.498-0.444,2.675-1.333,3.528
		c-0.89,0.854-2.118,1.281-3.686,1.281h-1.596v0.524l0.084,4.2h-1.701l0.104-4.053l-0.104-9.408l4.116-0.021
		C182.863,120.833,183.878,121.172,184.592,121.851z M183.941,124.928c0-1.736-0.924-2.639-2.771-2.709l-2.037,0.063l-0.063,5.901
		l2.205,0.042C183.052,127.945,183.941,126.846,183.941,124.928z"/>
	<path fill="#f1f1f1" d="M199.418,133.916l-0.021,0.21c-0.505,0.196-1.022,0.322-1.555,0.379l-0.23-0.147
		c-1.148-1.722-2.178-3.402-3.087-5.04h-2.457v0.798l0.084,4.2h-1.701l0.104-4.053l-0.104-9.408l4.116-0.021
		c1.315,0,2.334,0.333,3.055,0.998c0.722,0.665,1.082,1.613,1.082,2.846c0,0.924-0.241,1.753-0.725,2.488s-1.165,1.306-2.048,1.711
		C196.856,130.402,198.018,132.083,199.418,133.916z M194.609,127.952c1.567-0.447,2.352-1.49,2.352-3.129
		c0-1.666-0.924-2.533-2.771-2.604l-2.037,0.063l-0.063,5.607L194.609,127.952z"/>
	<path fill="#f1f1f1" d="M213.12,122.429c0.987,1.134,1.48,2.765,1.48,4.893c0,2.282-0.524,4.046-1.574,5.292
		c-1.051,1.246-2.541,1.869-4.474,1.869c-1.82,0-3.227-0.588-4.221-1.764c-0.994-1.177-1.491-2.849-1.491-5.02
		c0-2.239,0.521-3.962,1.564-5.166s2.537-1.806,4.483-1.806C210.723,120.728,212.134,121.295,213.12,122.429z M204.563,127.49
		c0,3.725,1.365,5.586,4.096,5.586c2.8,0,4.2-1.819,4.2-5.46c0-1.861-0.34-3.244-1.019-4.147c-0.68-0.902-1.712-1.354-3.098-1.354
		C205.956,122.114,204.563,123.906,204.563,127.49z"/>
	<path fill="#f1f1f1" d="M228.714,122.408c1.021,1.092,1.532,2.66,1.532,4.704c0,2.366-0.553,4.179-1.658,5.439
		c-1.106,1.26-2.695,1.89-4.768,1.89c-1.372,0-2.828-0.042-4.368-0.126h-0.021l0.104-4.053l-0.104-9.408h0.021l4.852-0.084
		C226.222,120.77,227.691,121.316,228.714,122.408z M227.38,131.637c0.763-0.931,1.145-2.32,1.145-4.168
		c0-3.528-1.449-5.292-4.347-5.292c-0.882,0-1.897,0.028-3.045,0.084l-0.084,7.854l0.063,2.793c0.979,0.084,1.975,0.126,2.982,0.126
		C225.521,133.034,226.617,132.569,227.38,131.637z"/>
	<path fill="#f1f1f1" d="M244.736,129.212c0.028,1.651-0.406,2.939-1.302,3.863c-0.896,0.924-2.17,1.387-3.822,1.387
		c-1.582,0-2.796-0.441-3.644-1.323c-0.847-0.882-1.257-2.128-1.229-3.738l0.021-1.827l-0.021-6.72h1.659l-0.063,8.337
		c-0.028,2.534,1.105,3.801,3.401,3.801c2.324,0,3.472-1.196,3.444-3.591l-0.084-8.547h1.68l-0.021,6.846L244.736,129.212z"/>
	<path fill="#f1f1f1" d="M258.826,121.757l-0.336,1.532l-0.188,0.042c-0.938-0.783-2.016-1.176-3.234-1.176
		c-1.33,0-2.352,0.459-3.065,1.376s-1.071,2.257-1.071,4.021c0,1.777,0.357,3.136,1.071,4.073c0.714,0.938,1.722,1.407,3.023,1.407
		c1.288,0,2.457-0.427,3.507-1.28l0.21,0.104l-0.146,1.596c-1.218,0.672-2.457,1.009-3.717,1.009c-1.807,0-3.206-0.585-4.2-1.754
		s-1.491-2.838-1.491-5.009c0-2.226,0.518-3.94,1.554-5.145s2.506-1.807,4.41-1.807C256.565,120.749,257.79,121.084,258.826,121.757
		z"/>
	<path fill="#f1f1f1" d="M271.133,122.324l-2.352-0.126h-1.365l-0.063,7.917l0.063,4.2h-1.701l0.126-4.053l-0.104-8.064h-1.365
		l-2.394,0.126l-0.105-0.168l0.126-1.302h9.135l0.126,0.168L271.133,122.324z"/>
	<path fill="#f1f1f1" d="M282.053,121.379l-0.273,1.616l-0.294,0.084c-0.84-0.644-1.722-0.966-2.646-0.966
		c-0.519,0-0.97,0.105-1.354,0.315c-0.386,0.21-0.68,0.482-0.883,0.818s-0.304,0.687-0.304,1.051c0,0.378,0.115,0.71,0.346,0.997
		c0.231,0.287,0.521,0.535,0.872,0.745c0.35,0.21,0.825,0.463,1.428,0.757c0.756,0.35,1.365,0.675,1.827,0.977
		c0.462,0.301,0.857,0.682,1.187,1.144c0.329,0.463,0.493,1.022,0.493,1.681c0,0.7-0.188,1.344-0.566,1.932s-0.91,1.058-1.597,1.407
		c-0.686,0.35-1.47,0.525-2.352,0.525c-1.288,0-2.492-0.315-3.612-0.945l0.21-1.722l0.231-0.105
		c0.489,0.477,1.032,0.829,1.627,1.061c0.595,0.23,1.166,0.347,1.712,0.347c0.532,0,1.004-0.105,1.417-0.315s0.729-0.489,0.945-0.84
		c0.217-0.35,0.325-0.721,0.325-1.113c0-0.588-0.224-1.061-0.672-1.417c-0.448-0.357-1.127-0.746-2.037-1.166
		c-0.742-0.363-1.337-0.689-1.784-0.977c-0.448-0.286-0.834-0.657-1.155-1.112c-0.322-0.455-0.483-1.012-0.483-1.67
		c0-0.686,0.186-1.315,0.557-1.89s0.889-1.025,1.554-1.354s1.425-0.494,2.279-0.494
		C280.016,120.749,281.017,120.958,282.053,121.379z"/>
</g>
</svg>
