<?xml version="1.0" encoding="utf-8"?>
<!-- Generator: Adobe Illustrator 16.0.0, SVG Export Plug-In . SVG Version: 6.00 Build 0)  -->
<!DOCTYPE svg PUBLIC "-//W3C//DTD SVG 1.1//EN" "http://www.w3.org/Graphics/SVG/1.1/DTD/svg11.dtd">
<svg version="1.1" id="Layer_1" xmlns="http://www.w3.org/2000/svg" xmlns:xlink="http://www.w3.org/1999/xlink" x="0px" y="0px"
	 width="356.844px" height="79.059px" viewBox="0 0 356.844 79.059" enable-background="new 0 0 356.844 79.059"
	 xml:space="preserve">
<g>
	<path fill="#5D917D" d="M37.594,50.965c-0.692-2.439-1.444-5.082-2.257-7.93c-0.692-2.439-1.494-5.195-2.409-8.266
		s-1.902-6.293-2.958-9.668h-0.366l-8.662,24.521l-3.904,1.342c-1.017-3.496-2.074-7.137-3.172-10.918
		c-0.936-3.254-2.013-6.873-3.233-10.859c-1.22-3.984-2.481-7.969-3.782-11.955c-0.366-1.18-0.986-2.043-1.86-2.593
		c-0.875-0.549-2.084-0.843-3.63-0.884c0-0.04-0.009-0.081-0.03-0.122c-0.02-0.04-0.03-0.081-0.03-0.122l0.366-2.623
		c0.935,0.041,1.83,0.082,2.684,0.122c0.732,0.041,1.484,0.061,2.257,0.061c0.772,0,1.423,0,1.952,0
		c1.057,0,2.125-0.031,3.203-0.092c1.077-0.061,2.022-0.131,2.836-0.213c0.976-0.122,1.911-0.244,2.806-0.366l0.183,0.427
		l-0.244,2.379c-2.074,0.163-3.468,0.407-4.179,0.732c-0.712,0.326-1.067,0.916-1.067,1.769c0,0.326,0.101,0.967,0.305,1.922
		c0.203,0.955,0.478,2.125,0.824,3.508c0.345,1.383,0.742,2.908,1.189,4.574c0.447,1.668,0.915,3.355,1.403,5.063
		c1.098,3.986,2.358,8.398,3.782,13.238h0.366l8.601-23.424l-1.098-3.355c-0.407-1.221-1.048-2.084-1.922-2.593
		c-0.875-0.508-2.064-0.802-3.568-0.884l-0.122-0.244l0.427-2.623c0.935,0.041,1.83,0.082,2.684,0.122
		c0.732,0.041,1.484,0.061,2.257,0.061c0.772,0,1.423,0,1.952,0c0.935,0,1.911-0.031,2.928-0.092
		c1.016-0.061,1.972-0.131,2.867-0.213c1.057-0.122,2.074-0.244,3.05-0.366l0.183,0.427l-0.244,2.379
		c-2.115,0.163-3.528,0.407-4.239,0.732c-0.712,0.326-1.068,0.936-1.068,1.83c0,0.244,0.112,0.846,0.336,1.801
		c0.223,0.955,0.508,2.114,0.854,3.477c0.345,1.363,0.741,2.877,1.189,4.545c0.447,1.668,0.915,3.354,1.403,5.063
		c1.098,4.025,2.358,8.479,3.782,13.359h0.366c0.488-1.383,1.077-3,1.769-4.85c0.691-1.85,1.403-3.771,2.135-5.766
		c0.732-1.992,1.453-3.984,2.165-5.977c0.711-1.992,1.352-3.813,1.922-5.461c0.569-1.646,1.026-3.028,1.373-4.147
		c0.345-1.118,0.518-1.839,0.518-2.165c0-0.772-0.326-1.321-0.976-1.647c-0.651-0.325-1.708-0.488-3.172-0.488h-3.05l-0.122-0.244
		l0.427-2.623c0.854,0.082,1.769,0.163,2.745,0.244c0.813,0.082,1.728,0.132,2.745,0.152c1.016,0.021,2.013,0.031,2.989,0.031
		c0.691,0,1.412,0,2.166,0c0.752,0,1.453-0.02,2.104-0.061c0.732-0.04,1.464-0.081,2.196-0.122l-0.427,2.867
		c-0.61,0.041-1.108,0.102-1.494,0.183c-0.387,0.082-0.723,0.224-1.007,0.427c-0.285,0.204-0.539,0.488-0.762,0.854
		c-0.224,0.367-0.438,0.854-0.641,1.465l-12.81,32.939L37.594,50.965z"/>
	<path fill="#5D917D" d="M77.915,50.66c-2.522,0-4.81-0.457-6.862-1.373c-2.054-0.914-3.833-2.205-5.337-3.873
		c-1.505-1.666-2.664-3.648-3.477-5.947c-0.814-2.297-1.22-4.85-1.22-7.656c0-3.008,0.519-5.824,1.556-8.447s2.449-4.9,4.239-6.832
		c1.789-1.932,3.914-3.447,6.375-4.545c2.46-1.098,5.094-1.647,7.899-1.647c2.562,0,4.9,0.458,7.015,1.373
		c2.114,0.915,3.935,2.196,5.459,3.843c1.525,1.646,2.704,3.629,3.538,5.947c0.833,2.318,1.25,4.859,1.25,7.625
		c0,3.051-0.529,5.887-1.586,8.51c-1.058,2.623-2.501,4.9-4.331,6.832s-3.986,3.447-6.466,4.545
		C83.486,50.111,80.802,50.66,77.915,50.66z M79.806,47.549c1.952,0,3.73-0.385,5.337-1.158c1.606-0.771,2.989-1.861,4.148-3.264
		c1.159-1.402,2.053-3.07,2.684-5.002c0.63-1.932,0.945-4.076,0.945-6.436c0-2.602-0.335-4.992-1.006-7.168
		c-0.671-2.174-1.616-4.035-2.836-5.581s-2.684-2.755-4.392-3.63c-1.708-0.874-3.599-1.312-5.673-1.312
		c-1.912,0-3.64,0.388-5.185,1.159c-1.546,0.773-2.888,1.86-4.026,3.264c-1.139,1.402-2.013,3.07-2.623,5.002
		s-0.915,4.078-0.915,6.436c0,2.604,0.335,4.992,1.006,7.168s1.596,4.035,2.775,5.58c1.179,1.547,2.602,2.756,4.27,3.631
		C75.982,47.113,77.813,47.549,79.806,47.549z"/>
	<path fill="#5D917D" d="M120.125,50.66c-2.522,0-4.81-0.457-6.862-1.373c-2.054-0.914-3.833-2.205-5.337-3.873
		c-1.505-1.666-2.664-3.648-3.477-5.947c-0.814-2.297-1.22-4.85-1.22-7.656c0-3.008,0.519-5.824,1.556-8.447s2.449-4.9,4.239-6.832
		c1.789-1.932,3.914-3.447,6.375-4.545c2.46-1.098,5.094-1.647,7.899-1.647c2.562,0,4.9,0.458,7.015,1.373
		c2.114,0.915,3.935,2.196,5.459,3.843c1.525,1.646,2.704,3.629,3.538,5.947c0.833,2.318,1.25,4.859,1.25,7.625
		c0,3.051-0.529,5.887-1.586,8.51c-1.058,2.623-2.501,4.9-4.331,6.832s-3.986,3.447-6.466,4.545
		C125.697,50.111,123.013,50.66,120.125,50.66z M122.017,47.549c1.952,0,3.73-0.385,5.337-1.158
		c1.606-0.771,2.989-1.861,4.148-3.264c1.159-1.402,2.053-3.07,2.684-5.002c0.63-1.932,0.945-4.076,0.945-6.436
		c0-2.602-0.335-4.992-1.006-7.168c-0.671-2.174-1.616-4.035-2.836-5.581s-2.684-2.755-4.392-3.63
		c-1.708-0.874-3.599-1.312-5.673-1.312c-1.912,0-3.64,0.388-5.185,1.159c-1.546,0.773-2.888,1.86-4.026,3.264
		c-1.139,1.402-2.013,3.07-2.623,5.002s-0.915,4.078-0.915,6.436c0,2.604,0.335,4.992,1.006,7.168s1.596,4.035,2.775,5.58
		c1.179,1.547,2.602,2.756,4.27,3.631C118.193,47.113,120.023,47.549,122.017,47.549z"/>
	<path fill="#5D917D" d="M162.337,50.66c-1.098-0.121-2.176-0.244-3.233-0.365c-0.936-0.082-1.901-0.164-2.897-0.244
		c-0.997-0.082-1.881-0.123-2.653-0.123c-0.773,0-1.566,0.041-2.379,0.123c-0.814,0.08-1.566,0.162-2.257,0.244
		c-0.814,0.121-1.607,0.244-2.379,0.365l0.366-2.807c0.935-0.162,1.708-0.375,2.318-0.641c0.61-0.264,1.098-0.588,1.464-0.975
		c0.366-0.387,0.62-0.875,0.763-1.465c0.142-0.588,0.213-1.311,0.213-2.166l0.061-25.619c0-1.301-0.143-2.176-0.427-2.623
		c-0.285-0.447-0.895-0.671-1.83-0.671c-0.204,0-0.427,0.01-0.671,0.03c-0.244,0.021-0.468,0.031-0.671,0.031
		c-0.244,0.041-0.488,0.061-0.732,0.061l-0.122-0.244l0.427-2.684c0.772,0.041,1.545,0.082,2.318,0.122
		c0.65,0.041,1.352,0.061,2.104,0.061c0.752,0,1.413,0,1.982,0c0.691,0,1.565-0.01,2.623-0.031c1.057-0.02,2.074-0.05,3.05-0.091
		c1.138-0.04,2.338-0.081,3.599-0.122c2.968,0,5.683,0.438,8.144,1.312c2.46,0.875,4.575,2.115,6.344,3.721
		c1.769,1.607,3.142,3.529,4.118,5.764c0.976,2.238,1.464,4.719,1.464,7.443c0,3.051-0.549,5.887-1.647,8.51
		c-1.098,2.623-2.592,4.9-4.483,6.832s-4.118,3.457-6.68,4.574C168.071,50.102,165.305,50.66,162.337,50.66z M159.165,13.816
		c-0.854,0-1.424,0.082-1.708,0.244c-0.285,0.163-0.448,0.53-0.488,1.098c-0.122,3.538-0.244,6.791-0.366,9.76
		s-0.224,5.604-0.305,7.9c-0.082,2.297-0.143,4.219-0.183,5.764c-0.041,1.547-0.061,2.664-0.061,3.355
		c0,1.098,0.111,2.014,0.335,2.744c0.223,0.732,0.619,1.313,1.189,1.738c0.569,0.428,1.352,0.723,2.349,0.885
		c0.996,0.164,2.266,0.244,3.813,0.244c2.196,0,4.168-0.396,5.917-1.189c1.748-0.793,3.233-1.922,4.453-3.385
		c1.22-1.465,2.155-3.242,2.806-5.338c0.65-2.094,0.976-4.463,0.976-7.107c0-5.406-1.607-9.545-4.819-12.412
		C169.86,15.25,165.224,13.816,159.165,13.816z"/>
	<path fill="#5D917D" d="M221.75,50.965c-0.692-2.439-1.444-5.082-2.257-7.93c-0.692-2.439-1.495-5.195-2.41-8.266
		s-1.901-6.293-2.958-9.668h-0.366l-8.662,24.521l-3.904,1.342c-1.017-3.496-2.073-7.137-3.172-10.918
		c-0.936-3.254-2.013-6.873-3.232-10.859c-1.221-3.984-2.481-7.969-3.782-11.955c-0.366-1.18-0.986-2.043-1.86-2.593
		c-0.875-0.549-2.084-0.843-3.63-0.884c0-0.04-0.009-0.081-0.03-0.122c-0.02-0.04-0.03-0.081-0.03-0.122l0.366-2.623
		c0.935,0.041,1.831,0.082,2.684,0.122c0.732,0.041,1.484,0.061,2.257,0.061s1.423,0,1.952,0c1.057,0,2.124-0.031,3.202-0.092
		c1.077-0.061,2.022-0.131,2.837-0.213c0.976-0.122,1.911-0.244,2.806-0.366l0.184,0.427l-0.244,2.379
		c-2.074,0.163-3.468,0.407-4.179,0.732c-0.712,0.326-1.067,0.916-1.067,1.769c0,0.326,0.101,0.967,0.305,1.922
		c0.203,0.955,0.478,2.125,0.823,3.508s0.742,2.908,1.19,4.574c0.446,1.668,0.914,3.355,1.402,5.063
		c1.099,3.986,2.358,8.398,3.782,13.238h0.366l8.601-23.424l-1.098-3.355c-0.407-1.221-1.048-2.084-1.922-2.593
		c-0.875-0.508-2.064-0.802-3.568-0.884l-0.122-0.244l0.427-2.623c0.936,0.041,1.83,0.082,2.685,0.122
		c0.731,0.041,1.483,0.061,2.257,0.061c0.772,0,1.423,0,1.952,0c0.935,0,1.911-0.031,2.928-0.092
		c1.016-0.061,1.972-0.131,2.867-0.213c1.057-0.122,2.074-0.244,3.05-0.366l0.183,0.427l-0.243,2.379
		c-2.115,0.163-3.529,0.407-4.24,0.732c-0.712,0.326-1.067,0.936-1.067,1.83c0,0.244,0.111,0.846,0.336,1.801
		c0.223,0.955,0.508,2.114,0.854,3.477c0.346,1.363,0.742,2.877,1.189,4.545s0.915,3.354,1.403,5.063
		c1.098,4.025,2.358,8.479,3.782,13.359h0.366c0.487-1.383,1.076-3,1.769-4.85c0.691-1.85,1.403-3.771,2.135-5.766
		c0.732-1.992,1.454-3.984,2.166-5.977c0.711-1.992,1.352-3.813,1.921-5.461c0.569-1.646,1.027-3.028,1.373-4.147
		c0.345-1.118,0.519-1.839,0.519-2.165c0-0.772-0.326-1.321-0.977-1.647c-0.65-0.325-1.708-0.488-3.172-0.488h-3.05l-0.122-0.244
		l0.427-2.623c0.854,0.082,1.77,0.163,2.745,0.244c0.813,0.082,1.729,0.132,2.745,0.152c1.016,0.021,2.013,0.031,2.989,0.031
		c0.69,0,1.412,0,2.165,0c0.752,0,1.454-0.02,2.104-0.061c0.732-0.04,1.464-0.081,2.196-0.122l-0.427,2.867
		c-0.61,0.041-1.108,0.102-1.495,0.183c-0.387,0.082-0.722,0.224-1.006,0.427c-0.285,0.204-0.54,0.488-0.763,0.854
		c-0.224,0.367-0.438,0.854-0.641,1.465l-12.81,32.939L221.75,50.965z"/>
	<path fill="#5D917D" d="M272.807,43.035c0.244,0.773,0.519,1.414,0.823,1.922s0.681,0.936,1.129,1.281
		c0.446,0.346,0.985,0.6,1.616,0.762c0.63,0.164,1.393,0.285,2.287,0.367l0.122,0.242l-0.427,2.502c-0.854,0-1.668-0.021-2.44-0.061
		c-0.691-0.041-1.402-0.072-2.135-0.092c-0.731-0.021-1.363-0.031-1.891-0.031c-1.18,0-2.309,0.031-3.386,0.092
		c-1.078,0.061-2.044,0.131-2.897,0.213c-1.017,0.123-1.952,0.225-2.806,0.307l-0.184-0.428l0.244-2.379
		c2.114-0.162,3.548-0.406,4.301-0.732c0.752-0.324,1.128-0.854,1.128-1.586c0-0.771-0.183-1.748-0.549-2.928l-2.013-6.648
		c-0.366,0-0.823-0.01-1.373-0.031c-0.549-0.02-1.118-0.031-1.708-0.031s-1.18,0-1.769,0c-0.59,0-1.089,0-1.494,0
		c-1.181,0-2.41,0.063-3.69,0.184c-1.281,0.123-2.268,0.225-2.959,0.305l-2.257,6.344c-0.366,1.1-0.549,1.893-0.549,2.379
		c0,0.896,0.284,1.537,0.854,1.922c0.569,0.387,1.504,0.58,2.807,0.58h3.477l0.122,0.244l-0.366,2.623
		c-0.895-0.041-1.81-0.102-2.745-0.184c-0.813-0.082-1.718-0.143-2.714-0.184c-0.997-0.041-2.004-0.061-3.02-0.061
		c-0.732,0-1.495,0.01-2.288,0.031c-0.793,0.02-1.516,0.051-2.165,0.092c-0.773,0.039-1.525,0.061-2.257,0.061l0.487-2.867
		c1.139-0.121,2.044-0.508,2.715-1.158s1.352-1.83,2.044-3.539l11.895-31.17l3.843-1.037h0.488
		c1.016,3.701,2.053,7.442,3.111,11.223c0.446,1.627,0.935,3.336,1.464,5.125c0.527,1.789,1.077,3.609,1.646,5.459
		c0.569,1.852,1.148,3.701,1.739,5.551C271.658,39.549,272.237,41.328,272.807,43.035z M253.835,33.275h5.368
		c0.813,0,1.789-0.031,2.929-0.092c1.138-0.061,2.053-0.131,2.744-0.213l-4.818-15.982h-0.427L253.835,33.275z"/>
	<path fill="#5D917D" d="M291.167,33.275l-0.183,9.088c0,1.1,0.04,1.975,0.122,2.623c0.081,0.652,0.274,1.16,0.579,1.525
		c0.305,0.367,0.752,0.602,1.342,0.701c0.59,0.104,1.373,0.154,2.349,0.154l0.122,0.242l-0.549,2.563
		c-0.814-0.041-1.535-0.07-2.165-0.092c-0.632-0.02-1.322-0.041-2.074-0.061c-0.753-0.021-1.495-0.031-2.227-0.031
		c-0.773,0-1.566,0-2.379,0c-0.814,0-1.566,0.021-2.257,0.063c-0.814,0.039-1.607,0.08-2.38,0.121l0.55-2.744
		c0.935-0.123,1.708-0.275,2.317-0.459c0.61-0.182,1.088-0.445,1.434-0.793c0.345-0.344,0.58-0.801,0.701-1.371
		c0.122-0.57,0.184-1.301,0.184-2.197l0.061-25.619c0-1.301-0.152-2.176-0.457-2.623s-0.905-0.671-1.8-0.671
		c-0.204,0-0.427,0.01-0.671,0.03c-0.244,0.021-0.468,0.031-0.671,0.031c-0.244,0.041-0.488,0.061-0.732,0.061l-0.122-0.244
		l0.428-2.684c0.854,0.041,1.687,0.082,2.501,0.122c0.69,0.041,1.434,0.061,2.227,0.061s1.474,0,2.043,0
		c0.528,0,1.21-0.01,2.044-0.031c0.833-0.02,1.656-0.05,2.471-0.091c0.935-0.04,1.931-0.081,2.988-0.122
		c3.822,0,6.822,0.854,8.998,2.562c2.175,1.708,3.264,4.046,3.264,7.015c0,2.439-0.784,4.678-2.349,6.709
		c-1.566,2.035-3.772,3.701-6.619,5.004l6.71,10.613c0.61,0.977,1.189,1.789,1.739,2.439c0.549,0.65,1.117,1.18,1.708,1.586
		c0.589,0.408,1.22,0.701,1.891,0.885s1.412,0.275,2.227,0.275l0.244,0.244l-0.366,2.072l-5.185,0.672
		c-1.018,0-2.104-0.52-3.264-1.555c-1.159-1.037-2.227-2.451-3.203-4.24l-6.526-11.834H291.167z M297.572,30.469
		c1.22-0.406,2.318-0.996,3.294-1.768c0.813-0.691,1.565-1.607,2.257-2.746s1.037-2.623,1.037-4.453
		c0-5.367-3.721-8.052-11.163-8.052c-0.448,0-0.731,0.091-0.854,0.274s-0.204,0.56-0.244,1.129
		c-0.082,1.627-0.163,3.121-0.244,4.483c-0.082,1.362-0.143,2.644-0.183,3.843c-0.041,1.199-0.082,2.348-0.122,3.447
		c-0.041,1.098-0.062,2.176-0.062,3.232L297.572,30.469z"/>
	<path fill="#5D917D" d="M334.598,50.66c-1.098-0.121-2.176-0.244-3.233-0.365c-0.936-0.082-1.901-0.164-2.897-0.244
		c-0.996-0.082-1.881-0.123-2.653-0.123s-1.565,0.041-2.379,0.123c-0.813,0.08-1.565,0.162-2.257,0.244
		c-0.813,0.121-1.607,0.244-2.379,0.365l0.366-2.807c0.935-0.162,1.708-0.375,2.317-0.641c0.61-0.264,1.099-0.588,1.464-0.975
		c0.366-0.387,0.62-0.875,0.763-1.465c0.143-0.588,0.214-1.311,0.214-2.166l0.061-25.619c0-1.301-0.143-2.176-0.427-2.623
		c-0.285-0.447-0.895-0.671-1.83-0.671c-0.204,0-0.427,0.01-0.671,0.03c-0.244,0.021-0.468,0.031-0.671,0.031
		c-0.244,0.041-0.488,0.061-0.732,0.061l-0.122-0.244l0.428-2.684c0.771,0.041,1.545,0.082,2.317,0.122
		c0.65,0.041,1.352,0.061,2.104,0.061c0.752,0,1.413,0,1.982,0c0.691,0,1.565-0.01,2.623-0.031c1.058-0.02,2.074-0.05,3.051-0.091
		c1.138-0.04,2.338-0.081,3.599-0.122c2.968,0,5.683,0.438,8.144,1.312c2.46,0.875,4.575,2.115,6.344,3.721
		c1.77,1.607,3.142,3.529,4.117,5.764c0.977,2.238,1.465,4.719,1.465,7.443c0,3.051-0.55,5.887-1.647,8.51s-2.593,4.9-4.483,6.832
		s-4.117,3.457-6.68,4.574C340.333,50.102,337.566,50.66,334.598,50.66z M331.426,13.816c-0.854,0-1.424,0.082-1.708,0.244
		c-0.285,0.163-0.448,0.53-0.488,1.098c-0.122,3.538-0.244,6.791-0.366,9.76c-0.121,2.969-0.224,5.604-0.305,7.9
		c-0.082,2.297-0.143,4.219-0.183,5.764c-0.041,1.547-0.062,2.664-0.062,3.355c0,1.098,0.111,2.014,0.336,2.744
		c0.223,0.732,0.619,1.313,1.189,1.738c0.569,0.428,1.352,0.723,2.349,0.885c0.996,0.164,2.267,0.244,3.813,0.244
		c2.195,0,4.168-0.396,5.917-1.189c1.748-0.793,3.232-1.922,4.453-3.385c1.22-1.465,2.154-3.242,2.806-5.338
		c0.65-2.094,0.976-4.463,0.976-7.107c0-5.406-1.606-9.545-4.818-12.412C342.122,15.25,337.485,13.816,331.426,13.816z"/>
</g>
<g>
	<path fill="#F1F1F1" d="M86.105,73.557l-2.625-7.813h-0.146l-2.772,7.813h-1.743l-4.283-13.461h1.68l0.23,1.301l3.276,10.291h0.147
		l2.897-8.189l-1.134-3.402h1.722l0.315,1.449l3.317,10.143h0.126l3.654-10.207l0.315-1.385h1.596l-4.83,13.461H86.105z"/>
	<path fill="#F1F1F1" d="M105.687,61.67c0.987,1.135,1.48,2.766,1.48,4.893c0,2.283-0.524,4.047-1.574,5.293
		c-1.051,1.246-2.541,1.869-4.474,1.869c-1.82,0-3.227-0.588-4.221-1.764c-0.994-1.178-1.491-2.85-1.491-5.02
		c0-2.24,0.521-3.963,1.564-5.166c1.043-1.205,2.537-1.807,4.483-1.807C103.29,59.969,104.701,60.537,105.687,61.67z M97.129,66.73
		c0,3.725,1.365,5.586,4.096,5.586c2.8,0,4.2-1.818,4.2-5.459c0-1.861-0.34-3.244-1.019-4.148c-0.68-0.902-1.712-1.354-3.098-1.354
		C98.523,61.355,97.129,63.146,97.129,66.73z"/>
	<path fill="#F1F1F1" d="M121.123,61.67c0.987,1.135,1.48,2.766,1.48,4.893c0,2.283-0.524,4.047-1.574,5.293
		c-1.051,1.246-2.541,1.869-4.474,1.869c-1.82,0-3.227-0.588-4.221-1.764c-0.994-1.178-1.491-2.85-1.491-5.02
		c0-2.24,0.521-3.963,1.564-5.166c1.043-1.205,2.537-1.807,4.483-1.807C118.725,59.969,120.136,60.537,121.123,61.67z
		 M112.565,66.73c0,3.725,1.365,5.586,4.096,5.586c2.8,0,4.2-1.818,4.2-5.459c0-1.861-0.34-3.244-1.019-4.148
		c-0.68-0.902-1.712-1.354-3.098-1.354C113.958,61.355,112.565,63.146,112.565,66.73z"/>
	<path fill="#F1F1F1" d="M136.715,61.648c1.021,1.092,1.532,2.66,1.532,4.705c0,2.365-0.553,4.178-1.658,5.439
		c-1.106,1.26-2.695,1.889-4.768,1.889c-1.372,0-2.828-0.041-4.368-0.125h-0.021l0.104-4.053l-0.104-9.408h0.021l4.852-0.084
		C134.223,60.012,135.693,60.557,136.715,61.648z M135.381,70.879c0.763-0.932,1.145-2.32,1.145-4.168
		c0-3.529-1.449-5.293-4.347-5.293c-0.882,0-1.897,0.029-3.045,0.084l-0.084,7.854l0.063,2.793c0.979,0.084,1.975,0.127,2.982,0.127
		C133.523,72.275,134.619,71.811,135.381,70.879z"/>
	<path fill="#F1F1F1" d="M150.659,73.557h-7.56l0.104-4.053l-0.104-9.408h7.581l0.084,0.168l-0.126,1.301l-3.171-0.063l-2.667,0.043
		l-0.042,4.41l2.52,0.041l2.227-0.063l0.126,0.146l-0.147,1.303l-2.352-0.043l-2.395,0.021l-0.021,1.994l0.063,2.793l2.667,0.021
		l3.234-0.084l0.104,0.168L150.659,73.557z"/>
	<path fill="#F1F1F1" d="M165.695,73.557h-1.764l-6.951-10.773h-0.126l-0.021,6.342l0.063,4.432h-1.575l0.104-3.99l-0.063-9.471
		h1.764l6.931,10.771h0.146l-0.021-10.688l1.596-0.127l-0.126,9.555L165.695,73.557z"/>
	<path fill="#F1F1F1" d="M185.812,60.998l-0.336,1.533l-0.188,0.041c-0.938-0.783-2.016-1.176-3.234-1.176
		c-1.33,0-2.352,0.459-3.065,1.377c-0.714,0.916-1.071,2.256-1.071,4.021c0,1.777,0.357,3.135,1.071,4.072
		c0.714,0.939,1.722,1.408,3.023,1.408c1.288,0,2.457-0.428,3.507-1.281l0.21,0.105l-0.146,1.596
		c-1.218,0.672-2.457,1.008-3.717,1.008c-1.807,0-3.206-0.584-4.2-1.754c-0.994-1.168-1.491-2.838-1.491-5.008
		c0-2.227,0.518-3.941,1.554-5.145c1.036-1.205,2.506-1.807,4.41-1.807C183.551,59.99,184.776,60.326,185.812,60.998z"/>
	<path fill="#F1F1F1" d="M199.315,73.156l-0.021,0.211c-0.505,0.195-1.022,0.322-1.555,0.379l-0.23-0.148
		c-1.148-1.721-2.178-3.402-3.087-5.039h-2.457v0.797l0.084,4.201h-1.701l0.104-4.053l-0.104-9.408l4.116-0.021
		c1.315,0,2.334,0.332,3.055,0.998c0.722,0.664,1.082,1.613,1.082,2.846c0,0.924-0.241,1.752-0.725,2.488
		c-0.483,0.734-1.165,1.305-2.048,1.711C196.753,69.643,197.915,71.324,199.315,73.156z M194.506,67.193
		c1.567-0.447,2.352-1.49,2.352-3.129c0-1.666-0.924-2.533-2.771-2.604l-2.037,0.063l-0.063,5.607L194.506,67.193z"/>
	<path fill="#F1F1F1" d="M211.663,73.557h-7.56l0.104-4.053l-0.104-9.408h7.581l0.084,0.168l-0.126,1.301l-3.171-0.063l-2.667,0.043
		l-0.042,4.41l2.52,0.041l2.227-0.063l0.126,0.146l-0.147,1.303l-2.352-0.043l-2.395,0.021l-0.021,1.994l0.063,2.793l2.667,0.021
		l3.234-0.084l0.104,0.168L211.663,73.557z"/>
	<path fill="#F1F1F1" d="M224.327,73.557l-0.315-1.344l-0.756-2.311l-3.023-0.063l-2.73,0.063l-0.819,2.227l-0.336,1.428h-1.68
		l4.935-13.461h1.953l4.494,13.461H224.327z M220.61,61.838h-0.147l-2.436,6.637l2.352,0.041l2.415-0.041L220.61,61.838z"/>
	<path fill="#F1F1F1" d="M237.199,61.564l-2.352-0.125h-1.365l-0.063,7.916l0.063,4.201h-1.701l0.126-4.053l-0.104-8.064h-1.365
		l-2.394,0.125l-0.105-0.168l0.126-1.301h9.135l0.126,0.168L237.199,61.564z"/>
	<path fill="#F1F1F1" d="M243.52,73.557h-1.701l0.104-4.053l-0.104-9.408h1.722l-0.104,9.26L243.52,73.557z"/>
	<path fill="#F1F1F1" d="M258.671,61.67c0.987,1.135,1.48,2.766,1.48,4.893c0,2.283-0.524,4.047-1.574,5.293
		c-1.051,1.246-2.541,1.869-4.474,1.869c-1.82,0-3.227-0.588-4.221-1.764c-0.994-1.178-1.491-2.85-1.491-5.02
		c0-2.24,0.521-3.963,1.564-5.166c1.043-1.205,2.537-1.807,4.483-1.807C256.274,59.969,257.685,60.537,258.671,61.67z
		 M250.114,66.73c0,3.725,1.365,5.586,4.096,5.586c2.8,0,4.2-1.818,4.2-5.459c0-1.861-0.34-3.244-1.019-4.148
		c-0.68-0.902-1.712-1.354-3.098-1.354C251.507,61.355,250.114,63.146,250.114,66.73z"/>
	<path fill="#F1F1F1" d="M275.356,73.557h-1.764l-6.951-10.773h-0.126l-0.021,6.342l0.063,4.432h-1.575l0.104-3.99l-0.063-9.471
		h1.764l6.931,10.771h0.146l-0.021-10.688l1.596-0.127l-0.126,9.555L275.356,73.557z"/>
	<path fill="#F1F1F1" d="M288.082,60.621l-0.273,1.615l-0.294,0.084c-0.84-0.643-1.722-0.965-2.646-0.965
		c-0.519,0-0.97,0.105-1.354,0.314c-0.386,0.211-0.68,0.482-0.883,0.818s-0.304,0.688-0.304,1.051c0,0.379,0.115,0.711,0.346,0.998
		c0.231,0.287,0.521,0.535,0.872,0.744c0.35,0.211,0.825,0.463,1.428,0.758c0.756,0.35,1.365,0.674,1.827,0.977
		c0.462,0.301,0.857,0.682,1.187,1.143c0.329,0.463,0.493,1.023,0.493,1.682c0,0.699-0.188,1.344-0.566,1.932
		s-0.91,1.057-1.597,1.406c-0.686,0.35-1.47,0.525-2.352,0.525c-1.288,0-2.492-0.314-3.612-0.945l0.21-1.721l0.231-0.105
		c0.489,0.477,1.032,0.828,1.627,1.061c0.595,0.23,1.166,0.346,1.712,0.346c0.532,0,1.004-0.105,1.417-0.314
		c0.413-0.211,0.729-0.49,0.945-0.84s0.325-0.721,0.325-1.113c0-0.588-0.224-1.061-0.672-1.418s-1.127-0.746-2.037-1.166
		c-0.742-0.363-1.337-0.689-1.784-0.977c-0.448-0.285-0.834-0.656-1.155-1.111c-0.322-0.455-0.483-1.012-0.483-1.67
		c0-0.686,0.186-1.316,0.557-1.891s0.889-1.025,1.554-1.354c0.665-0.33,1.425-0.494,2.279-0.494
		C286.044,59.99,287.045,60.199,288.082,60.621z"/>
</g>
</svg>
