<?xml version="1.0" encoding="utf-8"?>
<!-- Generator: Adobe Illustrator 16.0.0, SVG Export Plug-In . SVG Version: 6.00 Build 0)  -->
<!DOCTYPE svg PUBLIC "-//W3C//DTD SVG 1.1//EN" "http://www.w3.org/Graphics/SVG/1.1/DTD/svg11.dtd">
<svg version="1.1" id="Layer_1" xmlns="http://www.w3.org/2000/svg" xmlns:xlink="http://www.w3.org/1999/xlink" x="0px" y="0px"
	 width="354.406px" height="63.406px" viewBox="0 0 354.406 63.406" enable-background="new 0 0 354.406 63.406"
	 xml:space="preserve">
<g>
	<path fill="#A8AD80" d="M36.295,40.626c-0.692-2.44-1.444-5.083-2.257-7.93c-0.692-2.44-1.494-5.195-2.409-8.266
		s-1.902-6.293-2.958-9.669h-0.366l-8.662,24.522l-3.904,1.342c-1.017-3.497-2.074-7.137-3.172-10.919
		c-0.936-3.253-2.013-6.872-3.233-10.858c-1.22-3.984-2.481-7.97-3.782-11.955C5.185,5.714,4.564,4.85,3.69,4.3
		c-0.875-0.548-2.084-0.843-3.63-0.884c0-0.04-0.009-0.081-0.03-0.122C0.01,3.254,0,3.213,0,3.172l0.366-2.623
		C1.301,0.59,2.196,0.631,3.05,0.671c0.732,0.041,1.484,0.061,2.257,0.061c0.772,0,1.423,0,1.952,0c1.057,0,2.125-0.031,3.203-0.092
		c1.077-0.061,2.022-0.131,2.836-0.213c0.976-0.122,1.911-0.244,2.806-0.366l0.183,0.427l-0.244,2.379
		c-2.074,0.163-3.468,0.407-4.179,0.732c-0.712,0.326-1.067,0.915-1.067,1.77c0,0.326,0.101,0.967,0.305,1.922
		c0.203,0.955,0.478,2.125,0.824,3.507c0.345,1.383,0.742,2.908,1.189,4.575c0.447,1.668,0.915,3.354,1.403,5.063
		c1.098,3.986,2.358,8.398,3.782,13.237h0.366l8.601-23.424l-1.098-3.354C25.762,5.673,25.121,4.81,24.247,4.3
		c-0.875-0.507-2.064-0.802-3.568-0.884l-0.122-0.244l0.427-2.623c0.935,0.041,1.83,0.082,2.684,0.122
		c0.732,0.041,1.484,0.061,2.257,0.061c0.772,0,1.423,0,1.952,0c0.935,0,1.911-0.031,2.928-0.092
		c1.016-0.061,1.972-0.131,2.867-0.213c1.057-0.122,2.074-0.244,3.05-0.366l0.183,0.427l-0.244,2.379
		c-2.115,0.163-3.528,0.407-4.239,0.732c-0.712,0.326-1.068,0.936-1.068,1.83c0,0.244,0.112,0.845,0.336,1.8
		c0.223,0.956,0.508,2.114,0.854,3.478c0.345,1.362,0.741,2.877,1.189,4.544c0.447,1.668,0.915,3.354,1.403,5.063
		c1.098,4.026,2.358,8.479,3.782,13.359h0.366c0.488-1.382,1.077-2.999,1.769-4.85c0.691-1.85,1.403-3.771,2.135-5.765
		c0.732-1.992,1.453-3.984,2.165-5.978c0.711-1.992,1.352-3.813,1.922-5.46c0.569-1.646,1.026-3.029,1.373-4.148
		c0.345-1.117,0.518-1.839,0.518-2.165c0-0.772-0.326-1.321-0.976-1.647c-0.651-0.325-1.708-0.488-3.172-0.488h-3.05l-0.122-0.244
		l0.427-2.623c0.854,0.082,1.769,0.163,2.745,0.244c0.813,0.082,1.728,0.132,2.745,0.152c1.016,0.021,2.013,0.031,2.989,0.031
		c0.691,0,1.412,0,2.166,0c0.752,0,1.453-0.02,2.104-0.061c0.732-0.04,1.464-0.081,2.196-0.122l-0.427,2.867
		c-0.61,0.041-1.108,0.102-1.494,0.183c-0.387,0.082-0.723,0.224-1.007,0.428c-0.285,0.203-0.539,0.487-0.762,0.854
		c-0.224,0.366-0.438,0.854-0.641,1.464l-12.81,32.94L36.295,40.626z"/>
	<path fill="#A8AD80" d="M76.615,40.321c-2.522,0-4.81-0.458-6.862-1.373c-2.054-0.915-3.833-2.205-5.337-3.873
		c-1.505-1.667-2.664-3.649-3.477-5.948c-0.814-2.297-1.22-4.849-1.22-7.655c0-3.009,0.519-5.825,1.556-8.448
		s2.449-4.899,4.239-6.832c1.789-1.931,3.914-3.447,6.375-4.544C74.348,0.549,76.981,0,79.787,0c2.562,0,4.9,0.458,7.015,1.373
		c2.114,0.915,3.935,2.196,5.459,3.843c1.525,1.646,2.704,3.629,3.538,5.947c0.833,2.317,1.25,4.859,1.25,7.625
		c0,3.05-0.529,5.887-1.586,8.51c-1.058,2.622-2.501,4.9-4.331,6.831c-1.83,1.933-3.986,3.447-6.466,4.545
		C82.187,39.771,79.502,40.321,76.615,40.321z M78.506,37.21c1.952,0,3.73-0.386,5.337-1.159c1.606-0.771,2.989-1.86,4.148-3.264
		c1.159-1.402,2.053-3.069,2.684-5.002c0.63-1.931,0.945-4.076,0.945-6.436c0-2.602-0.335-4.991-1.006-7.167
		c-0.671-2.175-1.616-4.035-2.836-5.582c-1.22-1.545-2.684-2.754-4.392-3.629S79.787,3.66,77.713,3.66
		c-1.912,0-3.64,0.387-5.185,1.16c-1.546,0.772-2.888,1.859-4.026,3.264c-1.139,1.402-2.013,3.07-2.623,5.001
		c-0.61,1.933-0.915,4.078-0.915,6.436c0,2.604,0.335,4.993,1.006,7.168c0.671,2.176,1.596,4.036,2.775,5.581
		c1.179,1.546,2.602,2.756,4.27,3.63C74.683,36.773,76.513,37.21,78.506,37.21z"/>
	<path fill="#A8AD80" d="M118.826,40.321c-2.522,0-4.81-0.458-6.862-1.373c-2.054-0.915-3.833-2.205-5.337-3.873
		c-1.505-1.667-2.664-3.649-3.477-5.948c-0.814-2.297-1.22-4.849-1.22-7.655c0-3.009,0.519-5.825,1.556-8.448
		s2.449-4.899,4.239-6.832c1.789-1.931,3.914-3.447,6.375-4.544C116.559,0.549,119.192,0,121.998,0c2.562,0,4.9,0.458,7.015,1.373
		c2.114,0.915,3.935,2.196,5.459,3.843c1.525,1.646,2.704,3.629,3.538,5.947c0.833,2.317,1.25,4.859,1.25,7.625
		c0,3.05-0.529,5.887-1.586,8.51c-1.058,2.622-2.501,4.9-4.331,6.831c-1.83,1.933-3.986,3.447-6.466,4.545
		C124.397,39.771,121.713,40.321,118.826,40.321z M120.717,37.21c1.952,0,3.73-0.386,5.337-1.159
		c1.606-0.771,2.989-1.86,4.148-3.264c1.159-1.402,2.053-3.069,2.684-5.002c0.63-1.931,0.945-4.076,0.945-6.436
		c0-2.602-0.335-4.991-1.006-7.167c-0.671-2.175-1.616-4.035-2.836-5.582c-1.22-1.545-2.684-2.754-4.392-3.629
		s-3.599-1.312-5.673-1.312c-1.912,0-3.64,0.387-5.185,1.16c-1.546,0.772-2.888,1.859-4.026,3.264
		c-1.139,1.402-2.013,3.07-2.623,5.001c-0.61,1.933-0.915,4.078-0.915,6.436c0,2.604,0.335,4.993,1.006,7.168
		c0.671,2.176,1.596,4.036,2.775,5.581c1.179,1.546,2.602,2.756,4.27,3.63C116.894,36.773,118.724,37.21,120.717,37.21z"/>
	<path fill="#A8AD80" d="M161.038,40.321c-1.098-0.122-2.176-0.244-3.233-0.366c-0.936-0.082-1.901-0.163-2.897-0.244
		c-0.997-0.082-1.881-0.122-2.653-0.122c-0.773,0-1.566,0.04-2.379,0.122c-0.814,0.081-1.566,0.162-2.257,0.244
		c-0.814,0.122-1.607,0.244-2.379,0.366l0.366-2.807c0.935-0.162,1.708-0.375,2.318-0.641c0.61-0.264,1.098-0.589,1.464-0.976
		c0.366-0.386,0.62-0.874,0.763-1.464c0.142-0.589,0.213-1.312,0.213-2.166l0.061-25.619c0-1.302-0.143-2.176-0.427-2.623
		c-0.285-0.448-0.895-0.671-1.83-0.671c-0.204,0-0.427,0.01-0.671,0.03c-0.244,0.021-0.468,0.031-0.671,0.031
		c-0.244,0.041-0.488,0.061-0.732,0.061l-0.122-0.244l0.427-2.684c0.772,0.041,1.545,0.082,2.318,0.122
		c0.65,0.041,1.352,0.061,2.104,0.061c0.752,0,1.413,0,1.982,0c0.691,0,1.565-0.01,2.623-0.031c1.057-0.02,2.074-0.05,3.05-0.091
		c1.138-0.04,2.338-0.081,3.599-0.122c2.968,0,5.683,0.438,8.144,1.312c2.46,0.875,4.575,2.115,6.344,3.721
		c1.769,1.607,3.142,3.528,4.118,5.764c0.976,2.237,1.464,4.719,1.464,7.442c0,3.051-0.549,5.887-1.647,8.51
		c-1.098,2.623-2.592,4.901-4.483,6.832c-1.891,1.932-4.118,3.457-6.68,4.575S164.006,40.321,161.038,40.321z M157.866,3.477
		c-0.854,0-1.424,0.082-1.708,0.244c-0.285,0.163-0.448,0.529-0.488,1.099c-0.122,3.537-0.244,6.791-0.366,9.76
		s-0.224,5.603-0.305,7.899c-0.082,2.298-0.143,4.22-0.183,5.765c-0.041,1.546-0.061,2.664-0.061,3.354
		c0,1.099,0.111,2.014,0.335,2.745c0.223,0.732,0.619,1.312,1.189,1.738c0.569,0.428,1.352,0.723,2.349,0.885
		c0.996,0.163,2.266,0.244,3.813,0.244c2.196,0,4.168-0.396,5.917-1.189c1.748-0.793,3.233-1.922,4.453-3.386
		c1.22-1.464,2.155-3.242,2.806-5.337c0.65-2.095,0.976-4.463,0.976-7.107c0-5.407-1.607-9.546-4.819-12.413
		C168.561,4.91,163.925,3.477,157.866,3.477z"/>
	<path fill="#A8AD80" d="M220.452,40.626c-0.692-2.44-1.444-5.083-2.257-7.93c-0.692-2.44-1.495-5.195-2.41-8.266
		s-1.901-6.293-2.958-9.669h-0.366l-8.662,24.522l-3.904,1.342c-1.017-3.497-2.073-7.137-3.172-10.919
		c-0.936-3.253-2.013-6.872-3.232-10.858c-1.221-3.984-2.481-7.97-3.782-11.955c-0.366-1.18-0.986-2.044-1.86-2.594
		c-0.875-0.548-2.085-0.843-3.63-0.884c0-0.04-0.009-0.081-0.03-0.122c-0.02-0.04-0.03-0.081-0.03-0.122l0.366-2.623
		c0.936,0.041,1.83,0.082,2.685,0.122c0.731,0.041,1.484,0.061,2.257,0.061s1.423,0,1.952,0c1.057,0,2.124-0.031,3.202-0.092
		c1.077-0.061,2.022-0.131,2.837-0.213c0.976-0.122,1.911-0.244,2.806-0.366l0.184,0.427L200.2,2.867
		c-2.074,0.163-3.468,0.407-4.179,0.732c-0.712,0.326-1.067,0.915-1.067,1.77c0,0.326,0.101,0.967,0.305,1.922
		c0.203,0.955,0.478,2.125,0.823,3.507c0.346,1.383,0.742,2.908,1.19,4.575c0.446,1.668,0.914,3.354,1.402,5.063
		c1.099,3.986,2.358,8.398,3.782,13.237h0.366l8.601-23.424l-1.098-3.354c-0.407-1.221-1.048-2.084-1.922-2.594
		c-0.875-0.507-2.064-0.802-3.568-0.884l-0.122-0.244l0.427-2.623c0.936,0.041,1.83,0.082,2.685,0.122
		c0.731,0.041,1.483,0.061,2.257,0.061c0.772,0,1.423,0,1.952,0c0.935,0,1.911-0.031,2.928-0.092
		c1.016-0.061,1.972-0.131,2.867-0.213c1.057-0.122,2.074-0.244,3.05-0.366l0.183,0.427l-0.243,2.379
		c-2.115,0.163-3.529,0.407-4.24,0.732c-0.712,0.326-1.067,0.936-1.067,1.83c0,0.244,0.111,0.845,0.336,1.8
		c0.223,0.956,0.508,2.114,0.854,3.478c0.346,1.362,0.742,2.877,1.189,4.544c0.447,1.668,0.915,3.354,1.403,5.063
		c1.098,4.026,2.358,8.479,3.782,13.359h0.366c0.487-1.382,1.076-2.999,1.769-4.85c0.691-1.85,1.403-3.771,2.135-5.765
		c0.732-1.992,1.454-3.984,2.166-5.978c0.711-1.992,1.352-3.813,1.921-5.46c0.569-1.646,1.027-3.029,1.373-4.148
		c0.345-1.117,0.519-1.839,0.519-2.165c0-0.772-0.326-1.321-0.977-1.647c-0.65-0.325-1.708-0.488-3.172-0.488h-3.05l-0.122-0.244
		l0.427-2.623c0.854,0.082,1.77,0.163,2.745,0.244c0.813,0.082,1.729,0.132,2.745,0.152c1.016,0.021,2.013,0.031,2.989,0.031
		c0.69,0,1.412,0,2.165,0c0.752,0,1.454-0.02,2.104-0.061c0.732-0.04,1.464-0.081,2.196-0.122l-0.427,2.867
		c-0.61,0.041-1.108,0.102-1.495,0.183c-0.387,0.082-0.722,0.224-1.006,0.428c-0.285,0.203-0.54,0.487-0.763,0.854
		c-0.224,0.366-0.438,0.854-0.641,1.464l-12.81,32.94L220.452,40.626z"/>
	<path fill="#A8AD80" d="M271.508,32.696c0.244,0.772,0.519,1.413,0.823,1.921c0.305,0.509,0.681,0.937,1.129,1.281
		c0.446,0.346,0.985,0.601,1.616,0.763c0.63,0.163,1.393,0.285,2.287,0.366l0.122,0.243l-0.427,2.501
		c-0.854,0-1.668-0.021-2.44-0.061c-0.691-0.041-1.402-0.071-2.135-0.092c-0.731-0.021-1.363-0.03-1.891-0.03
		c-1.18,0-2.309,0.03-3.386,0.092c-1.078,0.061-2.044,0.131-2.897,0.213c-1.017,0.122-1.952,0.224-2.806,0.306l-0.184-0.428
		l0.244-2.379c2.114-0.162,3.548-0.405,4.301-0.731c0.752-0.325,1.128-0.854,1.128-1.586c0-0.772-0.183-1.748-0.549-2.929
		l-2.013-6.648c-0.366,0-0.823-0.01-1.373-0.03c-0.549-0.021-1.118-0.031-1.708-0.031s-1.18,0-1.769,0c-0.59,0-1.089,0-1.494,0
		c-1.181,0-2.41,0.062-3.69,0.184c-1.281,0.122-2.268,0.224-2.959,0.305l-2.257,6.344c-0.366,1.099-0.549,1.892-0.549,2.379
		c0,0.896,0.284,1.536,0.854,1.922c0.569,0.387,1.504,0.579,2.807,0.579h3.477l0.122,0.244l-0.366,2.623
		c-0.895-0.041-1.81-0.102-2.745-0.183c-0.813-0.082-1.718-0.144-2.714-0.184c-0.997-0.041-2.004-0.061-3.02-0.061
		c-0.732,0-1.495,0.01-2.288,0.03s-1.516,0.051-2.165,0.092c-0.773,0.04-1.525,0.061-2.257,0.061l0.487-2.866
		c1.139-0.122,2.044-0.509,2.715-1.159s1.352-1.83,2.044-3.538l11.895-31.171L261.321,0h0.488c1.016,3.701,2.053,7.442,3.111,11.224
		c0.446,1.627,0.935,3.335,1.464,5.124c0.527,1.79,1.077,3.609,1.646,5.46s1.148,3.701,1.739,5.551
		C270.359,29.209,270.938,30.988,271.508,32.696z M252.537,22.936h5.368c0.813,0,1.789-0.03,2.929-0.091
		c1.138-0.062,2.053-0.132,2.744-0.214l-4.818-15.981h-0.427L252.537,22.936z"/>
	<path fill="#A8AD80" d="M289.868,22.936l-0.183,9.089c0,1.099,0.04,1.974,0.122,2.623c0.081,0.651,0.274,1.159,0.579,1.525
		s0.752,0.601,1.342,0.701c0.59,0.103,1.373,0.153,2.349,0.153l0.122,0.243l-0.549,2.563c-0.814-0.041-1.535-0.071-2.165-0.092
		c-0.632-0.021-1.322-0.041-2.074-0.061c-0.753-0.021-1.495-0.031-2.227-0.031c-0.773,0-1.566,0-2.379,0
		c-0.814,0-1.566,0.021-2.257,0.062c-0.814,0.04-1.607,0.081-2.38,0.122l0.55-2.745c0.935-0.122,1.708-0.274,2.317-0.458
		c0.61-0.183,1.088-0.446,1.434-0.793c0.345-0.345,0.58-0.802,0.701-1.372c0.122-0.569,0.184-1.301,0.184-2.196l0.061-25.619
		c0-1.302-0.152-2.176-0.457-2.623c-0.305-0.448-0.905-0.671-1.8-0.671c-0.204,0-0.427,0.01-0.671,0.03
		c-0.244,0.021-0.468,0.031-0.671,0.031c-0.244,0.041-0.488,0.061-0.732,0.061l-0.122-0.244l0.428-2.684
		c0.854,0.041,1.687,0.082,2.501,0.122c0.69,0.041,1.434,0.061,2.227,0.061s1.474,0,2.043,0c0.528,0,1.21-0.01,2.044-0.031
		c0.833-0.02,1.656-0.05,2.471-0.091c0.935-0.04,1.931-0.081,2.988-0.122c3.822,0,6.822,0.854,8.998,2.562
		c2.175,1.708,3.264,4.047,3.264,7.016c0,2.439-0.784,4.677-2.349,6.709c-1.566,2.034-3.772,3.701-6.619,5.003l6.71,10.613
		c0.61,0.977,1.189,1.79,1.739,2.44c0.549,0.65,1.117,1.18,1.708,1.586c0.589,0.407,1.22,0.701,1.891,0.885
		c0.671,0.183,1.412,0.274,2.227,0.274l0.244,0.244l-0.366,2.073l-5.185,0.671c-1.018,0-2.104-0.519-3.264-1.555
		c-1.159-1.037-2.227-2.45-3.203-4.24l-6.526-11.834H289.868z M296.273,20.13c1.22-0.406,2.318-0.996,3.294-1.769
		c0.813-0.691,1.565-1.606,2.257-2.745s1.037-2.623,1.037-4.453c0-5.368-3.721-8.052-11.163-8.052c-0.448,0-0.731,0.091-0.854,0.274
		s-0.204,0.56-0.244,1.128c-0.082,1.627-0.163,3.122-0.244,4.483c-0.082,1.363-0.143,2.645-0.183,3.844
		c-0.041,1.199-0.082,2.348-0.122,3.446c-0.041,1.098-0.062,2.176-0.062,3.232L296.273,20.13z"/>
	<path fill="#A8AD80" d="M333.299,40.321c-1.098-0.122-2.176-0.244-3.233-0.366c-0.936-0.082-1.901-0.163-2.897-0.244
		c-0.996-0.082-1.881-0.122-2.653-0.122s-1.565,0.04-2.379,0.122c-0.813,0.081-1.565,0.162-2.257,0.244
		c-0.813,0.122-1.607,0.244-2.379,0.366l0.366-2.807c0.935-0.162,1.708-0.375,2.317-0.641c0.61-0.264,1.099-0.589,1.464-0.976
		c0.366-0.386,0.62-0.874,0.763-1.464c0.143-0.589,0.214-1.312,0.214-2.166l0.061-25.619c0-1.302-0.143-2.176-0.427-2.623
		c-0.285-0.448-0.895-0.671-1.83-0.671c-0.204,0-0.427,0.01-0.671,0.03c-0.244,0.021-0.468,0.031-0.671,0.031
		c-0.244,0.041-0.488,0.061-0.732,0.061l-0.122-0.244l0.428-2.684c0.771,0.041,1.545,0.082,2.317,0.122
		c0.65,0.041,1.352,0.061,2.104,0.061c0.752,0,1.413,0,1.982,0c0.691,0,1.565-0.01,2.623-0.031c1.058-0.02,2.074-0.05,3.051-0.091
		c1.138-0.04,2.338-0.081,3.599-0.122c2.968,0,5.683,0.438,8.144,1.312c2.46,0.875,4.575,2.115,6.344,3.721
		c1.77,1.607,3.142,3.528,4.117,5.764c0.977,2.237,1.465,4.719,1.465,7.442c0,3.051-0.55,5.887-1.647,8.51s-2.593,4.901-4.483,6.832
		c-1.891,1.932-4.117,3.457-6.68,4.575C339.034,39.762,336.267,40.321,333.299,40.321z M330.127,3.477
		c-0.854,0-1.424,0.082-1.708,0.244c-0.285,0.163-0.448,0.529-0.488,1.099c-0.122,3.537-0.244,6.791-0.366,9.76
		c-0.121,2.969-0.224,5.603-0.305,7.899c-0.082,2.298-0.143,4.22-0.183,5.765c-0.041,1.546-0.062,2.664-0.062,3.354
		c0,1.099,0.111,2.014,0.336,2.745c0.223,0.732,0.619,1.312,1.189,1.738c0.569,0.428,1.352,0.723,2.349,0.885
		c0.996,0.163,2.267,0.244,3.813,0.244c2.195,0,4.168-0.396,5.917-1.189c1.748-0.793,3.232-1.922,4.453-3.386
		c1.22-1.464,2.154-3.242,2.806-5.337c0.65-2.095,0.976-4.463,0.976-7.107c0-5.407-1.606-9.546-4.818-12.413
		C340.823,4.91,336.186,3.477,330.127,3.477z"/>
</g>
<g>
	<path fill="#E6D4A7" d="M84.806,63.217l-2.625-7.812h-0.146l-2.772,7.812h-1.743l-4.283-13.461h1.68l0.23,1.302l3.276,10.29h0.147
		l2.897-8.189l-1.134-3.402h1.722l0.315,1.449l3.317,10.143h0.126l3.654-10.206l0.315-1.386h1.596l-4.83,13.461H84.806z"/>
	<path fill="#E6D4A7" d="M104.388,51.331c0.987,1.134,1.48,2.765,1.48,4.893c0,2.282-0.524,4.046-1.574,5.292
		c-1.051,1.246-2.541,1.869-4.474,1.869c-1.82,0-3.227-0.588-4.221-1.764c-0.994-1.177-1.491-2.849-1.491-5.02
		c0-2.239,0.521-3.962,1.564-5.166s2.537-1.806,4.483-1.806C101.99,49.63,103.401,50.197,104.388,51.331z M95.83,56.392
		c0,3.725,1.365,5.586,4.096,5.586c2.8,0,4.2-1.819,4.2-5.46c0-1.861-0.34-3.244-1.019-4.147c-0.68-0.902-1.712-1.354-3.098-1.354
		C97.224,51.016,95.83,52.808,95.83,56.392z"/>
	<path fill="#E6D4A7" d="M119.823,51.331c0.987,1.134,1.48,2.765,1.48,4.893c0,2.282-0.524,4.046-1.574,5.292
		c-1.051,1.246-2.541,1.869-4.474,1.869c-1.82,0-3.227-0.588-4.221-1.764c-0.994-1.177-1.491-2.849-1.491-5.02
		c0-2.239,0.521-3.962,1.564-5.166s2.537-1.806,4.483-1.806C117.426,49.63,118.837,50.197,119.823,51.331z M111.266,56.392
		c0,3.725,1.365,5.586,4.096,5.586c2.8,0,4.2-1.819,4.2-5.46c0-1.861-0.34-3.244-1.019-4.147c-0.68-0.902-1.712-1.354-3.098-1.354
		C112.659,51.016,111.266,52.808,111.266,56.392z"/>
	<path fill="#E6D4A7" d="M135.416,51.31c1.021,1.092,1.532,2.66,1.532,4.704c0,2.366-0.553,4.179-1.658,5.439
		c-1.106,1.26-2.695,1.89-4.768,1.89c-1.372,0-2.828-0.042-4.368-0.126h-0.021l0.104-4.053l-0.104-9.408h0.021l4.852-0.084
		C132.924,49.672,134.394,50.218,135.416,51.31z M134.082,60.539c0.763-0.931,1.145-2.32,1.145-4.168
		c0-3.528-1.449-5.292-4.347-5.292c-0.882,0-1.897,0.028-3.045,0.084l-0.084,7.854l0.063,2.793c0.979,0.084,1.975,0.126,2.982,0.126
		C132.224,61.936,133.319,61.471,134.082,60.539z"/>
	<path fill="#E6D4A7" d="M149.359,63.217h-7.56l0.104-4.053l-0.104-9.408h7.581l0.084,0.168l-0.126,1.302l-3.171-0.063l-2.667,0.042
		l-0.042,4.41l2.52,0.042l2.227-0.063l0.126,0.147l-0.147,1.302l-2.352-0.042l-2.395,0.021l-0.021,1.995l0.063,2.793l2.667,0.021
		l3.234-0.084l0.104,0.168L149.359,63.217z"/>
	<path fill="#E6D4A7" d="M164.396,63.217h-1.764l-6.951-10.773h-0.126l-0.021,6.343l0.063,4.431h-1.575l0.104-3.99l-0.063-9.471
		h1.764l6.931,10.772h0.146l-0.021-10.688l1.596-0.126l-0.126,9.555L164.396,63.217z"/>
	<path fill="#E6D4A7" d="M183.19,50.753c0.714,0.68,1.07,1.656,1.07,2.93c0,1.498-0.444,2.675-1.333,3.528
		c-0.89,0.854-2.118,1.281-3.686,1.281h-1.596v0.524l0.084,4.2h-1.701l0.104-4.053l-0.104-9.408l4.116-0.021
		C181.461,49.734,182.477,50.074,183.19,50.753z M182.539,53.83c0-1.736-0.924-2.639-2.771-2.709l-2.037,0.063l-0.063,5.901
		l2.205,0.042C181.65,56.847,182.539,55.748,182.539,53.83z"/>
	<path fill="#E6D4A7" d="M198.016,62.817l-0.021,0.21c-0.505,0.196-1.022,0.322-1.555,0.379l-0.23-0.147
		c-1.148-1.722-2.178-3.402-3.087-5.04h-2.457v0.798l0.084,4.2h-1.701l0.104-4.053l-0.104-9.408l4.116-0.021
		c1.315,0,2.334,0.333,3.055,0.998c0.722,0.665,1.082,1.613,1.082,2.846c0,0.924-0.241,1.753-0.725,2.488s-1.165,1.306-2.048,1.711
		C195.455,59.304,196.616,60.984,198.016,62.817z M193.208,56.854c1.567-0.447,2.352-1.49,2.352-3.129
		c0-1.666-0.924-2.533-2.771-2.604l-2.037,0.063l-0.063,5.607L193.208,56.854z"/>
	<path fill="#E6D4A7" d="M211.718,51.331c0.987,1.134,1.48,2.765,1.48,4.893c0,2.282-0.524,4.046-1.574,5.292
		c-1.051,1.246-2.541,1.869-4.474,1.869c-1.82,0-3.227-0.588-4.221-1.764c-0.994-1.177-1.491-2.849-1.491-5.02
		c0-2.239,0.521-3.962,1.564-5.166s2.537-1.806,4.483-1.806C209.321,49.63,210.732,50.197,211.718,51.331z M203.161,56.392
		c0,3.725,1.365,5.586,4.096,5.586c2.8,0,4.2-1.819,4.2-5.46c0-1.861-0.34-3.244-1.019-4.147c-0.68-0.902-1.712-1.354-3.098-1.354
		C204.554,51.016,203.161,52.808,203.161,56.392z"/>
	<path fill="#E6D4A7" d="M227.312,51.31c1.021,1.092,1.532,2.66,1.532,4.704c0,2.366-0.553,4.179-1.658,5.439
		c-1.106,1.26-2.695,1.89-4.768,1.89c-1.372,0-2.828-0.042-4.368-0.126h-0.021l0.104-4.053l-0.104-9.408h0.021l4.852-0.084
		C224.82,49.672,226.29,50.218,227.312,51.31z M225.978,60.539c0.763-0.931,1.145-2.32,1.145-4.168c0-3.528-1.449-5.292-4.347-5.292
		c-0.882,0-1.897,0.028-3.045,0.084l-0.084,7.854l0.063,2.793c0.979,0.084,1.975,0.126,2.982,0.126
		C224.12,61.936,225.215,61.471,225.978,60.539z"/>
	<path fill="#E6D4A7" d="M243.334,58.114c0.028,1.651-0.406,2.939-1.302,3.863c-0.896,0.924-2.17,1.387-3.822,1.387
		c-1.582,0-2.796-0.441-3.644-1.323c-0.847-0.882-1.257-2.128-1.229-3.738l0.021-1.827l-0.021-6.72h1.659l-0.063,8.337
		c-0.028,2.534,1.105,3.801,3.401,3.801c2.324,0,3.472-1.196,3.444-3.591l-0.084-8.547h1.68l-0.021,6.846L243.334,58.114z"/>
	<path fill="#E6D4A7" d="M257.424,50.659l-0.336,1.532l-0.188,0.042c-0.938-0.783-2.016-1.176-3.234-1.176
		c-1.33,0-2.352,0.459-3.065,1.376s-1.071,2.257-1.071,4.021c0,1.777,0.357,3.136,1.071,4.073c0.714,0.938,1.722,1.407,3.023,1.407
		c1.288,0,2.457-0.427,3.507-1.28l0.21,0.104l-0.146,1.596c-1.218,0.672-2.457,1.009-3.717,1.009c-1.807,0-3.206-0.585-4.2-1.754
		s-1.491-2.838-1.491-5.009c0-2.226,0.518-3.94,1.554-5.145s2.506-1.807,4.41-1.807C255.164,49.65,256.388,49.986,257.424,50.659z"
		/>
	<path fill="#E6D4A7" d="M269.731,51.226l-2.352-0.126h-1.365l-0.063,7.917l0.063,4.2h-1.701l0.126-4.053l-0.104-8.064h-1.365
		l-2.394,0.126l-0.105-0.168l0.126-1.302h9.135l0.126,0.168L269.731,51.226z"/>
	<path fill="#E6D4A7" d="M280.651,50.281l-0.273,1.616l-0.294,0.084c-0.84-0.644-1.722-0.966-2.646-0.966
		c-0.519,0-0.97,0.105-1.354,0.315c-0.386,0.21-0.68,0.482-0.883,0.818s-0.304,0.687-0.304,1.051c0,0.378,0.115,0.71,0.346,0.997
		c0.231,0.287,0.521,0.535,0.872,0.745c0.35,0.21,0.825,0.463,1.428,0.757c0.756,0.35,1.365,0.675,1.827,0.977
		c0.462,0.301,0.857,0.682,1.187,1.144c0.329,0.463,0.493,1.022,0.493,1.681c0,0.7-0.188,1.344-0.566,1.932s-0.91,1.058-1.597,1.407
		c-0.686,0.35-1.47,0.525-2.352,0.525c-1.288,0-2.492-0.315-3.612-0.945l0.21-1.722l0.231-0.105
		c0.489,0.477,1.032,0.829,1.627,1.061c0.595,0.23,1.166,0.347,1.712,0.347c0.532,0,1.004-0.105,1.417-0.315s0.729-0.489,0.945-0.84
		c0.217-0.35,0.325-0.721,0.325-1.113c0-0.588-0.224-1.061-0.672-1.417c-0.448-0.357-1.127-0.746-2.037-1.166
		c-0.742-0.363-1.337-0.689-1.784-0.977c-0.448-0.286-0.834-0.657-1.155-1.112c-0.322-0.455-0.483-1.012-0.483-1.67
		c0-0.686,0.186-1.315,0.557-1.89s0.889-1.025,1.554-1.354s1.425-0.494,2.279-0.494C278.614,49.65,279.615,49.86,280.651,50.281z"/>
</g>
</svg>
