<?xml version="1.0" encoding="utf-8"?>
<!-- Generator: Adobe Illustrator 16.0.0, SVG Export Plug-In . SVG Version: 6.00 Build 0)  -->
<!DOCTYPE svg PUBLIC "-//W3C//DTD SVG 1.1//EN" "http://www.w3.org/Graphics/SVG/1.1/DTD/svg11.dtd">
<svg version="1.1"
	 id="svg2" xmlns:inkscape="http://www.inkscape.org/namespaces/inkscape" xmlns:dc="http://purl.org/dc/elements/1.1/" xmlns:sodipodi="http://sodipodi.sourceforge.net/DTD/sodipodi-0.dtd" xmlns:cc="http://creativecommons.org/ns#" xmlns:rdf="http://www.w3.org/1999/02/22-rdf-syntax-ns#" xmlns:svg="http://www.w3.org/2000/svg" sodipodi:docname="Twitter_bird_logo_2012.svg" inkscape:version="0.48.4 r9939"
	 xmlns="http://www.w3.org/2000/svg" xmlns:xlink="http://www.w3.org/1999/xlink" x="0px" y="0px" width="92.288px" height="75px"
	 viewBox="39.607 32.189 92.288 75" enable-background="new 39.607 32.189 92.288 75" xml:space="preserve">
<sodipodi:namedview  pagecolor="#ffffff" showgrid="false" id="base" bordercolor="#666666" inkscape:cx="101.29413" inkscape:zoom="3.7200571" fit-margin-top="0" borderopacity="1.0" fit-margin-left="0" inkscape:cy="50.181142" inkscape:pageopacity="0.0" inkscape:window-y="-8" fit-margin-right="0" fit-margin-bottom="0" inkscape:pageshadow="2" inkscape:window-x="-8" inkscape:current-layer="layer1" inkscape:window-width="1280" inkscape:document-units="px" inkscape:window-height="962" inkscape:window-maximized="1">
	</sodipodi:namedview>
<g id="layer1" transform="translate(-282.32053,-396.30734)" inkscape:label="Layer 1" inkscape:groupmode="layer">
	<path id="path5" inkscape:connector-curvature="0" fill="#55acee" d="M414.216,437.375c-3.396,1.506-7.045,2.523-10.875,2.981
		c3.91-2.343,6.912-6.053,8.325-10.475c-3.658,2.169-7.71,3.745-12.023,4.594c-3.453-3.68-8.375-5.979-13.82-5.979
		c-10.456,0-18.934,8.478-18.934,18.934c0,1.484,0.167,2.929,0.49,4.315c-15.736-0.79-29.687-8.328-39.025-19.783
		c-1.63,2.796-2.564,6.048-2.564,9.518c0,6.569,3.342,12.365,8.423,15.759c-3.104-0.098-6.023-0.95-8.576-2.367
		c-0.002,0.079-0.002,0.158-0.002,0.238c0,9.173,6.527,16.825,15.188,18.566c-1.588,0.433-3.262,0.663-4.988,0.663
		c-1.22,0-2.406-0.119-3.562-0.34c2.41,7.522,9.401,12.995,17.687,13.148c-6.48,5.079-14.644,8.105-23.515,8.105
		c-1.528,0-3.036-0.09-4.517-0.265c8.379,5.372,18.331,8.508,29.024,8.508c34.826,0,53.871-28.851,53.871-53.872
		c0-0.821-0.019-1.638-0.055-2.45C408.468,444.506,411.678,441.172,414.216,437.375L414.216,437.375z"/>
</g>
</svg>
